<?xml version="1.0" encoding="UTF-8"?>
<svg width="771px" height="449px" viewBox="0 0 771 449" version="1.1" xmlns="http://www.w3.org/2000/svg" xmlns:xlink="http://www.w3.org/1999/xlink">
    <title>Group 99</title>
    <g id="Page-1" stroke="none" stroke-width="1" fill="none" fill-rule="evenodd">
        <g id="Group-99" fill="#000000">
            <path d="M136.0815,207.1081 C134.9065,203.8981 132.8195,202.4311 130.0245,202.4831 C127.0915,202.5361 124.8035,204.0241 123.2655,207.1081 L136.0815,207.1081 Z M128.3045,263.3021 C126.9165,265.0951 125.9525,266.6321 124.6915,267.8671 C123.8295,268.7111 122.4555,269.7401 121.4895,269.5841 C120.3835,269.4051 119.0565,268.4931 119.0785,266.6351 C119.0935,265.2981 118.3765,263.9531 118.0945,262.9851 C115.3095,263.7471 112.6245,264.4821 109.9515,265.2131 C114.7755,273.1381 137.2835,278.2661 147.7005,269.1991 C143.7215,268.5031 141.1775,266.0691 139.2965,262.7211 C138.2045,264.7011 137.2525,266.4631 136.2675,268.2071 C134.9935,270.4641 132.2825,270.5161 130.9615,268.2861 C130.2005,267.0001 129.5495,265.6491 128.3045,263.3021 L128.3045,263.3021 Z M153.8885,271.1811 C152.1865,272.1431 150.4485,273.0481 148.7885,274.0781 C143.8565,277.1411 138.4695,278.9451 132.7075,278.5101 C127.9935,278.1531 123.3075,277.0831 118.6795,276.0221 C113.8105,274.9061 109.6875,272.4561 106.6545,268.3091 C106.1375,267.6011 104.9055,266.9991 104.0405,267.0441 C101.8335,267.1591 99.6485,267.6681 97.4205,268.0251 C115.1475,287.6721 144.2055,283.3561 153.8885,271.1811 L153.8885,271.1811 Z M66.3215,286.0061 C65.8695,286.6491 65.5175,287.1961 65.1205,287.7071 C62.3115,291.3251 59.3915,294.8621 56.7145,298.5731 C54.8705,301.1301 53.2855,303.8841 51.7145,306.6251 C48.2425,312.6851 44.8475,318.7891 41.4465,324.8901 C41.2595,325.2251 41.1535,325.7381 41.2655,326.0871 C42.1125,328.7531 40.4335,330.7871 39.3715,332.8241 C36.6505,338.0391 33.6915,343.1221 33.0735,349.3021 C34.8125,350.1481 36.6025,351.0201 38.3945,351.8921 C39.9395,347.2741 41.2595,342.8111 42.9275,338.4811 C44.6995,333.8821 46.7165,329.3721 48.7785,324.8931 C51.2495,319.5241 53.6665,314.1131 56.4985,308.9331 C59.9435,302.6301 63.6235,296.4361 67.5595,290.4291 C69.1055,288.0681 68.7605,286.9961 66.3215,286.0061 L66.3215,286.0061 Z M81.9465,420.5851 C81.7645,410.4371 81.6065,400.0401 81.3405,389.6471 C81.3195,388.8291 80.7555,387.7261 80.0915,387.2801 C78.0295,385.8971 75.7975,384.7661 73.6315,383.5381 C73.4555,383.6711 73.2795,383.8051 73.1035,383.9391 C75.4635,390.5971 74.2235,397.0401 71.6305,403.1261 C69.0085,409.2791 64.9905,414.3931 57.3085,415.6391 C59.6545,417.1351 61.3405,418.2341 63.0525,419.2931 C64.1395,419.9651 65.2215,421.0151 66.3795,421.1261 C69.0545,421.3831 71.7765,421.2301 74.4755,421.1291 C76.8135,421.0411 79.1455,420.7961 81.9465,420.5851 L81.9465,420.5851 Z M158.0585,308.7011 C159.6085,316.5281 161.4645,324.3791 162.6515,332.3291 C163.8485,340.3431 164.3805,348.4571 165.1755,356.2491 L174.5135,356.2491 C174.0585,351.5321 173.8155,347.0981 173.1605,342.7251 C172.3975,337.6231 171.2725,332.5761 170.3105,327.5041 C169.4505,322.9711 168.6285,318.4321 167.7325,313.9071 C167.2165,311.3041 166.5865,308.7241 166.0365,306.2641 C163.4565,307.0521 160.7525,307.8781 158.0585,308.7011 L158.0585,308.7011 Z M134.9155,426.6311 C135.0775,426.4711 135.2395,426.3111 135.4015,426.1511 C134.4025,425.3011 133.2115,424.5951 132.4405,423.5731 C130.1255,420.5001 127.0875,418.8511 123.3525,418.1651 C122.2485,417.9611 121.0455,417.3561 120.2575,416.5671 C118.7445,415.0521 119.3555,413.3081 123.0255,411.6771 C125.2505,410.6881 127.8265,409.4351 129.0725,407.5331 C131.1805,404.3161 132.3585,400.4921 133.9295,396.9201 C133.1605,396.5141 132.9565,396.3231 132.7385,396.3041 C127.1795,395.8171 121.6215,395.3191 116.0545,394.9401 C115.6495,394.9121 114.8535,395.7431 114.7995,396.2361 C114.5135,398.8541 114.4685,401.4971 114.2255,404.1221 C113.8155,408.5541 113.2785,412.9751 112.8765,417.4081 C112.6315,420.1161 112.5395,422.8381 112.3875,425.4031 C114.9745,426.5341 117.4495,427.6151 119.6575,428.5801 C119.7785,427.7511 119.9175,426.3391 119.9935,426.3431 C122.2245,426.4441 124.4485,426.6861 126.6635,426.9041 C126.8765,424.2001 127.9665,423.5311 130.9775,424.8291 C132.3025,425.4011 133.6035,426.0291 134.9155,426.6311 L134.9155,426.6311 Z M75.3825,271.5481 C76.3235,273.0251 76.9125,273.9471 77.4995,274.8721 C79.6135,278.2031 82.8945,280.1531 86.1985,282.0011 C88.6695,283.3831 91.2135,284.7721 93.8965,285.6081 C99.0425,287.2111 104.2615,288.6561 109.5395,289.7291 C114.4625,290.7291 119.4825,291.4111 124.4935,291.7711 C129.1915,292.1091 133.9745,292.2391 138.6435,291.7381 C143.7955,291.1851 148.8835,289.9141 153.9525,288.7481 C156.3865,288.1891 158.8255,287.3811 161.0535,286.2681 C163.3405,285.1261 166.2235,284.5821 167.1585,281.5841 C168.7605,276.4451 169.4715,271.1921 169.2015,265.8191 C169.1755,265.2901 168.7215,264.7821 168.3065,263.9411 C167.4375,265.1781 166.9655,266.1441 166.2355,266.8381 C162.7495,270.1501 159.2255,273.4251 155.6515,276.6421 C152.4015,279.5681 148.6105,281.7411 144.5745,283.2721 C138.4325,285.6031 131.9755,286.2311 125.4095,285.8611 C117.6885,285.4241 110.4345,283.2951 103.9525,279.1831 C100.0955,276.7361 96.7935,273.4231 93.1735,270.5871 C92.4015,269.9831 91.2815,269.3341 90.4045,269.4341 C85.6155,269.9791 80.8525,270.7521 75.3825,271.5481 L75.3825,271.5481 Z M146.8175,356.7421 C148.1815,356.7421 149.4045,356.6841 150.6205,356.7531 C153.3215,356.9071 156.0645,356.8841 158.7045,357.3861 C160.9915,357.8211 160.8625,356.5591 160.7125,355.2161 C160.0965,349.6901 159.5395,344.1531 158.7125,338.6571 C157.2535,328.9621 155.6115,319.2941 154.0645,309.7231 C147.1845,310.0171 141.0435,310.2801 134.7435,310.5491 L134.7435,381.9041 C138.5375,381.6741 142.0585,381.4601 145.5285,381.2501 C146.0665,378.2031 145.2075,375.6951 144.3805,372.9811 C142.4665,366.6981 141.1995,360.2131 139.7545,353.7921 C138.8425,349.7361 138.0005,345.6601 137.3225,341.5611 C137.1835,340.7251 137.6675,339.4501 138.3115,338.9031 C139.2095,338.1401 140.1425,338.6961 141.2435,339.4121 C144.4975,341.5301 144.6105,344.5811 144.8085,347.9251 C145.0345,351.7461 145.7905,355.5361 146.3155,359.3391 C146.4345,359.3261 146.5535,359.3131 146.6715,359.3001 C146.7135,358.5741 146.7545,357.8471 146.8175,356.7421 L146.8175,356.7421 Z M178.4225,442.3101 C178.4895,442.1721 178.5555,442.0341 178.6225,441.8961 C178.3055,441.6661 177.9485,441.4751 177.6785,441.1991 C176.1725,439.6651 174.5845,438.1911 173.2585,436.5131 C172.8505,435.9971 173.1785,434.9011 173.1695,434.0701 C174.0875,434.1451 175.1965,433.9151 175.8895,434.3491 C178.3615,435.8991 180.6915,437.6741 183.0755,439.3631 C183.0365,438.3851 182.7645,437.3721 182.1065,436.9131 C178.3165,434.2681 174.4525,431.7271 170.5725,429.2161 C169.4475,428.4881 168.5465,428.1971 169.0725,426.2721 C169.9495,423.0581 170.2965,419.6521 170.4735,416.3071 C170.7435,411.2271 170.2355,406.0761 170.8515,401.0521 C171.9615,391.9961 171.7885,382.9921 171.0035,373.4261 C164.1425,374.1311 157.3025,374.8351 150.2895,375.5561 C150.1085,378.9861 149.7735,382.4811 149.8025,385.9731 C149.8175,387.7491 149.9705,389.9171 150.9695,391.2061 C152.8885,393.6821 153.1145,393.9911 150.5965,395.7571 C150.6465,396.7211 150.7295,397.6181 150.7325,398.5151 C150.7495,402.7821 150.6175,407.0541 150.7795,411.3151 C150.9745,416.4881 151.3475,421.6581 151.7655,426.8191 C152.0355,430.1501 152.2745,433.5831 155.9965,435.2321 C156.7275,435.5561 157.3915,436.0351 158.1295,436.3361 C160.1945,437.1771 162.2825,437.9631 164.3615,438.7701 C164.5025,438.5481 164.6435,438.3261 164.7845,438.1041 C164.0135,437.4741 162.9895,436.9831 162.5475,436.1741 C162.1415,435.4321 162.0135,433.7481 162.3795,433.5351 C163.1875,433.0631 164.7065,432.7941 165.3675,433.2551 C169.0515,435.8221 172.5475,438.6551 176.1545,441.3341 C176.7975,441.8111 177.6615,441.9921 178.4225,442.3101 L178.4225,442.3101 Z M81.1835,364.1111 C78.2515,362.9251 78.0295,361.7831 79.9925,359.3711 C80.5985,358.6271 81.1495,357.5931 81.1825,356.6721 C81.3155,353.0241 81.2925,349.3671 81.2155,345.7151 C81.1105,340.7721 80.8415,335.8321 80.8005,330.8891 C80.7935,330.0691 81.3975,328.9051 82.0715,328.5231 C82.6435,328.2001 83.9685,328.5201 84.5145,329.0301 C85.0485,329.5301 85.2065,330.6301 85.2105,331.4681 C85.2565,340.5291 85.2385,349.5901 85.2385,358.5601 C88.6705,358.8141 91.8565,359.1411 95.0485,359.2171 C95.7645,359.2351 97.0465,358.4701 97.1415,357.9091 C97.8095,353.9611 98.5215,349.9841 98.6815,345.9951 C99.0895,335.8151 101.6015,326.0101 103.6285,316.1161 C104.2755,312.9561 105.1025,309.8321 105.8125,306.8391 C100.2005,304.6961 94.8295,302.6461 89.2515,300.5161 C79.3785,321.2211 72.0565,342.9931 67.4555,366.3141 C71.6055,368.0171 76.3215,369.9531 81.7635,372.1871 C81.5415,369.0861 81.3695,366.7031 81.1835,364.1111 L81.1835,364.1111 Z M41.6455,353.2751 C48.3645,356.5841 55.6545,360.1741 63.3145,363.9461 C68.1805,341.1051 75.5995,319.2971 85.1855,298.1971 C81.1505,295.7431 77.1045,293.2831 73.0845,290.8381 C72.6205,291.2851 72.1765,291.5751 71.9185,291.9831 C69.0265,296.5511 66.0465,301.0691 63.3265,305.7381 C60.8065,310.0631 58.4305,314.4861 56.2535,318.9921 C54.3285,322.9791 52.6935,327.1131 51.0585,331.2321 C49.1795,335.9621 47.5465,340.7911 45.6025,345.4931 C44.4925,348.1771 42.9755,350.6921 41.6455,353.2751 L41.6455,353.2751 Z M115.2495,359.4831 C115.2495,357.6891 115.1185,356.3291 115.2725,355.0021 C115.8805,349.7561 116.4645,344.5001 117.3355,339.2951 C117.5175,338.2061 118.8705,336.5181 119.7085,336.5031 C121.3685,336.4741 122.3685,337.9371 122.2135,339.7791 C121.9165,343.3101 121.5205,346.8331 121.2735,350.3671 C120.8815,355.9571 120.7925,361.5781 120.1455,367.1351 C119.8355,369.7941 119.3005,373.4381 117.5095,374.6771 C114.7825,376.5641 115.2285,378.3701 115.5675,380.7821 C120.3415,381.2991 125.1465,381.8191 129.9985,382.3441 C132.2545,358.0981 129.0095,334.0461 130.2435,310.0401 C123.5015,309.2031 117.0015,308.3961 110.1825,307.5491 C108.3825,316.1401 106.2895,324.8331 104.7945,333.6281 C103.3265,342.2581 102.4655,350.9901 101.3645,359.4831 L115.2495,359.4831 Z M120.5575,438.0371 C120.7465,437.9091 120.9355,437.7821 121.1245,437.6551 C120.4175,436.3741 120.0115,434.6781 118.9385,433.9021 C116.8725,432.4071 114.4995,431.2641 112.1265,430.2811 C108.5165,428.7841 107.2725,426.5501 107.7295,422.7871 C108.5355,416.1341 109.2225,409.4611 109.6965,402.7771 C110.1045,397.0281 110.1325,391.2521 110.3575,385.4891 C110.4445,383.2471 110.7315,381.0081 110.7095,378.7691 C110.6775,375.5351 109.8255,374.7741 106.7115,374.7741 C100.5925,374.7741 94.4715,374.8601 88.3565,374.7271 C86.2055,374.6811 85.6235,375.4361 85.7075,377.4651 C85.9615,383.6551 86.1425,389.8491 86.2195,396.0431 C86.3035,402.7921 86.2395,409.5441 86.2385,416.2951 C86.2385,420.5101 86.4945,424.7451 86.1585,428.9331 C85.8875,432.3121 86.9835,434.5861 89.8885,436.1101 C90.8165,436.5971 91.7735,437.0321 92.7295,437.4641 C96.3915,439.1161 100.0595,440.7571 103.6075,442.3501 C102.6345,441.1991 101.4825,440.1611 100.7815,438.8771 C100.4115,438.2001 100.4755,436.7431 100.9625,436.2571 C101.9255,435.2951 103.0255,434.8411 104.5615,436.1721 C107.1375,438.4041 110.0225,440.3601 113.0185,441.9911 C114.1715,442.6191 116.1205,443.9791 117.6055,441.5741 C115.2455,440.4541 113.0045,438.8531 110.5455,438.3791 C108.2525,437.9371 108.6715,436.3371 108.9645,435.5061 C109.3105,434.5241 110.1965,433.1341 112.0405,434.1031 C114.8045,435.5551 117.7115,436.7391 120.5575,438.0371 L120.5575,438.0371 Z M86.8135,243.0711 C85.3975,241.0291 85.1305,239.4571 87.2455,238.4091 C89.1805,237.4501 89.9515,238.9971 90.7115,240.2911 C94.8785,247.3881 100.9365,251.4931 109.2875,251.3091 C114.7255,251.1901 120.2295,250.5821 124.7695,247.0651 C126.5525,245.6851 128.5305,244.2641 128.2575,241.4551 C128.1765,240.6261 128.2895,239.5061 128.7905,238.9441 C130.0905,237.4901 129.4285,235.9431 128.9945,234.6481 C128.7485,233.9101 127.2735,233.5831 126.3525,233.0711 C126.1405,233.8021 125.7835,234.5261 125.7515,235.2641 C125.7075,236.2801 126.3535,237.8641 125.9145,238.2131 C124.9975,238.9421 123.5005,239.4551 122.3545,239.2881 C118.5975,238.7401 115.8045,233.3531 117.4705,229.9831 C120.0045,224.8561 124.4415,222.3891 129.9605,221.9421 C135.2835,221.5111 139.3065,224.0681 142.6565,228.0211 C144.5405,230.2461 145.4905,234.7661 144.0495,237.1921 C143.5065,238.1071 142.2865,239.2081 141.4115,239.1771 C140.4965,239.1451 139.6015,237.8801 138.7495,237.0981 C138.4695,236.8421 138.4235,236.3321 138.1435,236.0761 C137.3785,235.3741 136.6945,233.8591 135.4335,235.0721 C134.5765,235.8961 133.7465,237.0411 134.9655,238.4351 C135.7015,239.2791 136.1695,240.3661 136.7075,241.3711 C139.4815,246.5521 143.7395,249.5681 149.6485,249.8481 C156.0085,250.1501 161.8925,248.3101 167.4495,245.3221 C172.1395,242.8011 176.5655,237.1381 175.7805,230.6571 C175.2275,226.0861 170.9135,220.8991 166.4105,220.3491 C163.2455,219.9631 160.0215,219.8811 156.8305,219.9561 C154.5065,220.0101 153.0275,219.2711 152.4135,216.6651 C151.4245,217.2961 150.1905,217.6481 149.7975,218.4241 C148.9795,220.0381 147.6425,220.9881 146.2215,220.4411 C145.1775,220.0391 144.6205,218.3731 143.5515,216.8501 C133.3535,217.1521 122.4745,217.4741 111.4745,217.8001 C111.9775,220.1061 110.6235,221.1661 108.9545,221.3801 C108.1525,221.4831 107.1895,220.3061 106.2965,219.7141 C105.5655,219.2301 104.8465,218.3681 104.0935,218.3361 C98.5605,218.0981 93.0175,218.0951 87.4835,217.8711 C85.1885,217.7781 82.9085,217.3231 80.6225,217.0321 C79.7975,216.9261 78.9175,216.5751 78.1575,216.7491 C74.0125,217.6981 70.5435,219.9761 67.5915,222.9071 C65.6545,224.8301 64.1435,227.1811 62.3435,229.4651 C63.4515,229.9041 63.9645,230.1751 64.5115,230.2951 C64.7825,230.3551 65.1075,230.1011 65.4185,230.0481 C69.1975,229.4041 72.9645,228.6511 76.7665,228.2101 C77.8845,228.0801 79.2325,228.6531 80.2045,229.3061 C80.5035,229.5071 80.1435,231.1911 79.6675,231.9261 C78.9635,233.0141 77.7575,233.7701 76.9955,234.8321 C75.6385,236.7241 74.4535,238.7391 72.8145,241.3001 C77.9495,241.9501 82.1195,242.4771 86.8135,243.0711 L86.8135,243.0711 Z M132.1655,245.3111 C132.4255,245.0291 132.6845,244.7461 132.9445,244.4641 C132.7285,244.7101 132.4505,244.9251 132.3055,245.2081 C129.4885,250.7131 124.7105,253.3941 118.8645,254.5101 C116.9465,254.8771 114.9965,255.0751 113.0805,255.4441 C105.6865,256.8691 99.1495,255.0431 93.4085,250.2761 C91.2895,248.5161 89.4475,247.1481 86.1745,247.1781 C80.3395,247.2321 74.4975,246.0161 68.6515,245.3961 C63.4735,244.8461 58.2865,244.3721 53.1005,243.8891 C50.8045,243.6761 48.4455,243.7851 46.2155,243.2961 C40.1265,241.9601 33.9765,241.1991 27.7705,241.4331 C19.9975,241.7261 13.6335,244.9621 9.3465,251.6101 C8.4655,252.9761 7.9325,254.7501 7.7965,256.3821 C7.2505,262.9091 10.8635,267.4071 15.8145,270.8121 C21.4685,274.7001 28.1015,274.5871 34.5905,274.1571 C38.6315,273.8891 42.6265,272.9541 46.6485,272.3681 C50.5845,271.7951 54.5565,271.4381 58.4635,270.7151 C65.7595,269.3671 73.0055,267.7391 80.3015,266.3901 C84.7955,265.5591 89.3665,265.1431 93.8635,264.3271 C97.5315,263.6601 101.1585,262.7421 104.7735,261.8151 C108.5845,260.8361 112.4665,259.9911 116.1195,258.5761 C119.6855,257.1961 121.9245,257.9461 122.7165,261.5701 C122.8255,262.0681 122.7885,262.5981 122.8185,263.1161 C124.8355,261.4481 126.4755,259.1981 128.6005,258.5591 C131.3525,257.7311 132.4855,260.5161 133.2845,262.3901 C135.1595,260.7631 136.7785,258.4471 138.9385,257.7061 C141.8795,256.6981 142.4915,260.4501 144.2985,261.8001 C144.7885,260.8281 145.2695,259.9261 145.7035,259.0021 C146.5055,257.2931 147.9765,257.4621 148.9425,258.3781 C150.4435,259.8041 151.7605,260.2121 153.9565,260.0761 C158.9075,259.7681 163.9105,260.4051 168.8855,260.3111 C173.8165,260.2191 178.7425,259.7271 183.6665,259.3631 C187.6535,259.0671 191.6355,258.7011 195.5245,258.3741 C195.5245,256.3541 195.4185,254.6121 195.5805,252.8951 C195.6385,252.2721 196.2205,251.4561 196.7815,251.1971 C197.2555,250.9771 198.3405,251.2251 198.6295,251.6361 C199.1935,252.4351 199.7295,253.5131 199.6785,254.4421 C199.4915,257.8561 200.8065,260.6111 202.9005,263.2151 C205.7135,255.9111 204.8145,244.8001 200.8015,241.5991 C199.9785,242.9451 198.9635,244.1531 198.4505,245.5471 C197.7205,247.5311 196.4555,248.4451 194.4355,248.3701 C190.9015,248.2391 187.3705,248.0581 183.8395,247.8771 C181.5425,247.7591 179.2485,247.5241 176.9515,247.4951 C175.3235,247.4741 173.3515,247.1581 172.1185,247.9201 C164.9155,252.3681 157.1135,254.5131 148.7325,254.3071 C144.8745,254.2121 141.2695,252.8851 138.2675,250.1971 C136.3285,248.4611 134.2055,246.9321 132.1655,245.3111 L132.1655,245.3111 Z M15.4745,362.8071 C14.8295,362.2121 14.0785,361.5031 13.3095,360.8131 C12.5135,360.0981 11.6865,359.4161 10.8965,358.6941 C8.7285,356.7111 6.2485,357.3431 5.2315,360.1611 C3.7825,364.1741 5.1265,367.9701 6.4905,371.6101 C7.4555,374.1861 8.8495,376.6171 11.3745,378.3221 C12.9545,379.3891 13.6115,381.2481 11.7655,383.0541 C11.2255,383.5821 10.9665,384.4621 10.7325,385.2281 C8.6345,392.1071 9.8055,398.7941 12.5245,405.1621 C14.4275,409.6181 16.9225,413.8411 19.3895,418.0291 C22.1395,422.6961 25.7135,426.6761 30.3865,429.5521 C30.8555,429.8411 31.7765,430.2531 31.9125,430.0991 C34.4215,427.2701 36.2285,429.8141 38.1445,430.9021 C42.6055,433.4361 47.3205,435.2281 52.3835,436.1461 C52.0695,435.7341 51.5535,435.5681 51.3125,435.2151 C50.7905,434.4481 49.8395,433.2991 50.0825,432.8211 C50.6435,431.7131 51.6605,430.6271 53.3065,431.5131 C56.4585,433.2111 59.6385,434.8581 62.8135,436.5121 C64.5455,437.4141 66.2925,438.2871 68.0335,439.1721 C67.9265,438.4781 67.5835,438.2111 67.2275,437.9631 C63.8675,435.6281 60.4285,433.3941 57.2055,430.8831 C56.5525,430.3741 56.7105,428.8251 56.4935,427.7561 C57.6375,427.7331 58.9855,427.3151 59.8785,427.7761 C61.3465,428.5331 62.4315,429.9961 63.8385,430.9161 C66.2055,432.4641 68.6975,433.8201 71.1375,435.2561 C70.1815,431.4741 67.5225,429.7141 64.7285,427.8471 C59.2365,424.1771 53.9575,420.1791 48.7155,416.1541 C47.9865,415.5931 47.6275,414.0581 47.7635,413.0651 C47.8375,412.5321 49.2905,412.0211 50.1935,411.8161 C51.1555,411.5971 52.2165,411.8551 53.2095,411.7211 C58.1545,411.0581 62.6785,410.1351 65.4615,404.9501 C68.4645,399.3571 70.6175,393.8271 69.2095,387.4571 C68.3725,383.6671 66.4655,380.5131 62.7545,378.8161 C61.6555,378.3131 60.4135,378.1081 59.3395,377.5641 C51.7455,373.7191 44.1805,369.8141 36.6005,365.9411 C32.2945,363.7411 27.9775,361.5651 23.4875,359.2881 C22.2705,361.2391 20.9195,363.6461 19.3015,365.8591 C18.7675,366.5891 17.5735,367.0681 16.6275,367.1721 C16.1295,367.2271 15.1675,366.2971 15.0395,365.6821 C14.8645,364.8391 15.2825,363.8731 15.4745,362.8071 L15.4745,362.8071 Z M67.5655,273.2861 C63.6575,274.0411 59.7615,274.8681 55.8385,275.5291 C51.7305,276.2221 47.6015,276.7921 43.4725,277.3441 C40.1105,277.7931 36.7425,278.2671 33.3615,278.5011 C26.2295,278.9941 19.1945,278.5501 13.0385,274.4101 C9.6835,272.1531 7.0035,269.3031 5.2965,265.3651 C4.3725,263.2361 3.5655,261.2301 3.1675,258.9461 C2.5515,255.4151 3.6415,252.1881 5.3325,249.4161 C8.5705,244.1131 13.4275,240.5701 19.3665,238.5501 C25.8775,236.3341 32.4325,236.6691 39.0945,237.7711 C43.7815,238.5461 48.5395,238.9181 53.2745,239.3731 C58.4275,239.8691 63.5915,240.2531 68.7785,240.6881 C69.6125,238.6441 70.5135,236.4361 71.3485,234.3921 C68.9225,234.3921 66.1955,234.4331 63.4715,234.3821 C58.8525,234.2971 57.6095,231.1281 59.2665,226.8971 C61.3265,221.6391 65.9605,219.1541 70.0185,214.9091 C67.1675,214.9091 64.8675,214.9901 62.5745,214.8941 C55.5835,214.5991 48.5575,214.5601 41.6195,213.7651 C38.0895,213.3611 34.6245,211.7581 31.3395,210.2451 C30.4295,209.8251 29.8385,207.7771 29.8605,206.4891 C29.8955,204.4311 31.9845,203.9121 33.5185,203.4841 C40.2025,201.6231 47.1075,201.5621 53.9775,201.4321 C59.8885,201.3201 65.8065,201.3011 71.7165,201.4611 C75.4335,201.5621 79.1365,202.1331 82.8545,202.3421 C83.5565,202.3821 84.6565,201.9101 84.9665,201.3441 C88.7115,194.5141 94.0705,189.6721 101.0905,186.0971 C107.4865,182.8401 114.0355,180.9721 121.0845,180.4331 C128.3345,179.8791 135.2555,181.1221 142.0275,183.7811 C147.2035,185.8131 152.2015,188.1831 156.0815,192.1321 C162.1385,198.2951 166.2375,205.5421 166.4285,214.8781 C172.9465,215.6611 177.0145,219.5881 179.2365,225.8321 C181.4425,232.0321 180.7935,237.7481 176.3615,243.6281 L193.9475,243.6281 C194.8135,242.4301 195.7775,240.7171 197.0955,239.3451 C200.6955,235.6001 204.4905,237.2651 206.6675,241.1461 C207.8555,243.2641 207.9855,246.0141 208.4075,248.5101 C208.7725,250.6741 209.2695,252.9291 209.0085,255.0591 C208.5825,258.5351 209.0685,262.2641 206.9545,265.3981 C204.9425,268.3811 201.4745,269.5021 199.1585,265.6221 C197.1655,262.2831 193.9665,262.8101 190.8685,263.0191 C186.6415,263.3041 182.4115,263.5741 178.1885,263.9151 C176.8125,264.0271 175.4525,264.3441 173.8895,264.5981 C173.7445,267.7461 173.8005,271.0671 173.3765,274.3261 C173.0185,277.0781 172.0615,279.7481 171.4505,282.4721 C171.1485,283.8191 170.8365,284.9661 171.9995,286.4511 C172.8275,287.5081 172.4565,289.7651 172.1445,291.3961 C171.4975,294.7841 170.4565,298.0961 169.7545,301.4761 C169.5745,302.3401 170.0295,303.3491 170.2425,304.2811 C171.7065,310.6971 173.2205,317.1021 174.6455,323.5271 C175.8805,329.0951 177.1795,334.6581 178.1495,340.2741 C178.9155,344.7071 179.4365,349.2061 179.6815,353.6971 C179.9385,358.4291 179.8945,363.1931 179.6705,367.9281 C179.5645,370.1591 179.5475,372.7721 176.2965,373.4381 C175.7905,373.5421 175.2465,375.4661 175.3965,376.4461 C176.6865,384.9151 176.0465,393.3691 175.5575,401.8451 C175.2515,407.1421 175.4485,412.4671 175.1855,417.7681 C175.0535,420.4291 174.4005,423.0651 173.9725,425.7761 C176.9365,427.6891 180.0915,429.6451 183.1635,431.7251 C187.3415,434.5561 188.5825,438.0251 187.2175,442.6501 C186.7525,444.2261 183.5795,446.6801 181.8195,446.6991 C177.9895,446.7411 174.1935,446.8111 170.4845,445.3571 C166.4945,443.7941 162.3475,442.6341 158.2895,441.2401 C154.6385,439.9861 151.4375,437.9531 148.9145,435.0471 C148.1895,434.2131 147.8645,432.8361 147.7795,431.6771 C147.2275,424.1141 146.7045,416.5471 146.3515,408.9741 C146.1585,404.8271 146.3165,400.6631 146.3165,396.3851 L138.4835,396.3851 C136.4655,403.2131 134.4875,410.1571 128.2755,414.2941 C131.2765,416.8791 134.3215,419.6041 137.4775,422.1931 C140.9155,425.0141 142.5075,428.7611 143.0625,433.0001 C143.1395,433.5841 142.2575,434.7781 141.6685,434.8881 C136.1265,435.9251 130.5595,436.9821 124.8905,435.4261 C125.4805,441.2171 123.2925,444.7401 117.9415,446.7861 C110.0055,449.8221 102.9975,446.6521 95.9025,444.0151 C92.7285,442.8351 89.5415,441.4541 86.7345,439.5991 C84.1835,437.9121 81.2305,436.1371 81.6935,432.1231 C81.9315,430.0621 81.7365,427.9441 81.6585,425.8551 C81.6075,424.4841 80.6835,424.5471 79.6385,424.7211 C76.9815,425.1641 74.3115,425.5311 71.2505,425.9871 C72.7155,427.7931 74.0855,429.5611 75.5405,431.2561 C77.2715,433.2711 77.6935,435.4841 77.3595,438.1241 C77.0755,440.3691 75.7365,441.6911 73.9995,442.1181 C70.7295,442.9221 67.5355,443.9961 63.9095,443.3211 C57.1065,442.0551 50.3585,440.7551 43.8405,438.3401 C42.6345,437.8931 41.0195,438.6851 39.6675,438.4591 C37.4285,438.0861 35.0355,437.7491 33.0865,436.6961 C25.8525,432.7861 19.3055,427.8121 14.2545,421.3321 C10.5315,416.5561 6.7235,411.6311 6.1635,405.0951 C5.8975,401.9911 4.4295,398.9491 4.4155,395.8751 C4.3995,392.2231 4.7425,388.3171 6.0845,384.9851 C7.3185,381.9191 6.2665,380.2061 4.7635,377.9871 C1.5715,373.2761 -0.0655,368.0101 0.000464791363,362.2901 C0.0425,358.8551 0.8805,355.7071 3.7005,353.3861 C4.8905,352.4071 8.9195,351.7921 10.1805,352.5321 C13.1435,354.2701 16.0835,356.0451 18.9465,357.7541 C21.5695,354.7911 24.5165,351.7231 27.1315,348.3941 C28.2925,346.9151 28.8435,344.9341 29.5685,343.1401 C31.3235,338.8021 32.9635,334.4181 34.7495,330.0941 C36.8545,324.9961 38.7145,319.7531 41.3275,314.9221 C44.0415,309.9021 47.5685,305.3241 50.6575,300.5001 C52.0445,298.3351 53.0765,295.9341 54.5445,293.8321 C56.8915,290.4701 59.4885,287.2821 61.9235,283.9801 C62.2555,283.5291 62.2895,282.8461 62.4195,282.2611 C62.6355,281.2861 62.5285,280.0851 63.0705,279.3651 C64.5315,277.4221 66.2635,275.6831 67.8875,273.8631 C67.7795,273.6711 67.6725,273.4781 67.5655,273.2861 L67.5655,273.2861 Z" id="Fill-1"></path>
            <path d="M103.7578,235.7516 C103.7008,233.3166 105.4288,231.2296 107.0458,231.5136 C107.8828,231.6616 108.9988,232.8986 109.1428,233.7806 C109.4998,235.9836 107.9858,237.4866 105.6458,237.2736 C104.8368,237.1996 104.1248,236.0666 103.7578,235.7516" id="Fill-4"></path>
            <path d="M108.7201,244.0529 C107.1421,245.5879 106.3651,246.9259 105.2891,247.2409 C103.9621,247.6289 101.8561,245.0649 102.3341,243.7149 C102.6051,242.9479 103.8401,241.9249 104.4951,242.0199 C105.7331,242.1999 106.8651,243.1029 108.7201,244.0529" id="Fill-6"></path>
            <path d="M150.7894,236.7155 C151.8864,238.1375 153.2644,239.3535 153.0564,239.7605 C152.3634,241.1175 151.1014,242.1845 150.0584,243.3625 C149.2874,242.4765 147.7364,241.3765 147.9084,240.7485 C148.2694,239.4285 149.5364,238.3575 150.7894,236.7155" id="Fill-8"></path>
            <path d="M160.2792,228.8809 C158.7662,230.3909 157.9182,231.9259 156.7522,232.2239 C155.3652,232.5799 153.9742,231.0469 154.3962,229.7119 C154.7552,228.5769 156.2392,227.6469 157.4312,227.0139 C157.7962,226.8199 158.8422,227.9049 160.2792,228.8809" id="Fill-10"></path>
            <path d="M93.5877,234.4488 C94.8447,233.7868 96.1077,232.9358 97.5017,232.5108 C97.8727,232.3978 98.9897,233.5198 99.1267,234.2028 C99.2537,234.8348 98.7217,235.9538 98.1437,236.3068 C96.5677,237.2648 95.0137,237.1318 93.5877,234.4488" id="Fill-12"></path>
            <path d="M167.0262,235.8672 C165.9032,237.5272 165.0212,238.8322 163.6902,240.8002 C162.5852,239.0822 161.1342,237.7962 161.3682,237.0092 C162.0772,234.6212 164.1602,234.9422 167.0262,235.8672" id="Fill-14"></path>
            <path d="M494.1959,21.0706 C495.6179,21.0906 497.9499,19.4896 497.6669,18.2536 C497.2979,16.6366 497.0499,14.2396 494.6069,14.8596 C493.0769,15.2466 491.0129,16.5486 490.6889,17.8216 C490.3619,19.1066 490.7139,22.0846 494.1959,21.0706 L494.1959,21.0706 Z M577.1879,50.5846 C574.9719,50.1186 573.0559,49.1276 571.5609,49.5676 C570.0859,50.0016 568.4959,51.6796 567.9299,53.1796 C567.0809,55.4306 569.8979,58.9496 572.2679,58.7786 C573.6699,58.6776 575.7499,57.9606 576.2069,56.9346 C577.0469,55.0456 576.9149,52.7236 577.1879,50.5846 L577.1879,50.5846 Z M493.4189,23.7436 C492.8279,25.1566 491.8039,26.5246 491.7439,27.9326 C491.4629,34.5626 491.4179,41.2026 491.3539,47.8406 C491.3359,49.6616 491.9129,51.5626 491.5539,53.2896 C491.1249,55.3526 491.5159,57.1946 493.3429,57.4946 C495.4429,57.8396 497.9709,57.1216 498.5759,54.5626 C499.0349,52.6226 498.8519,50.4986 498.7499,48.4666 C498.5079,43.6606 497.8679,38.8576 497.9159,34.0586 C497.9559,30.1206 498.7819,26.1806 493.4189,23.7436 L493.4189,23.7436 Z M507.1749,56.7836 C507.8079,55.5526 508.9049,54.3356 509.0159,53.0336 C509.4229,48.2806 509.6129,43.5006 509.6709,38.7286 C509.7259,34.2436 509.5499,29.7546 509.4029,25.2696 C509.2569,20.7986 509.9799,16.1176 506.6529,12.3076 C502.5579,14.6766 502.3819,14.6736 502.3389,17.2846 C502.2539,22.3766 502.3649,27.4716 502.4349,32.5646 C502.4869,36.3236 502.7019,40.0816 502.6589,43.8386 C502.6239,46.8646 502.1229,49.8946 502.2319,52.9076 C502.2669,53.8966 503.4459,54.9776 504.3299,55.7566 C504.9289,56.2846 505.9259,56.3596 507.1749,56.7836 L507.1749,56.7836 Z M365.3669,30.6786 C365.5069,30.2316 365.7759,29.7816 365.7639,29.3396 C365.7109,27.5306 366.5119,25.3556 363.8629,24.5586 C360.3549,23.5036 359.2849,24.2056 359.3159,28.3016 C359.3799,36.7586 359.5969,45.2176 359.9519,53.6686 C360.0349,55.6406 360.8709,57.8146 363.5019,57.5916 C365.8059,57.3966 367.2309,56.2696 367.3149,53.4936 C367.4539,48.9056 367.8769,44.3046 368.5319,39.7596 C369.0149,36.4046 371.5859,33.7736 374.2379,33.8256 C376.4059,33.8666 377.0959,32.8256 377.4729,31.0886 C377.6999,30.0396 377.9189,28.9886 378.1409,27.9426 C371.8759,26.4706 368.7719,27.2126 365.3669,30.6786 L365.3669,30.6786 Z M440.1529,25.5286 C439.3729,25.9966 438.0639,26.5496 437.0499,27.4406 C435.1589,29.1016 435.7969,32.2686 438.1799,32.2936 C441.0039,32.3236 440.6629,34.0536 440.7609,35.5466 C441.0719,40.2726 441.0779,45.0196 441.4509,49.7396 C441.8549,54.8616 444.7799,59.1576 449.5919,60.5126 C451.6079,61.0806 454.2689,60.1136 456.4139,59.2756 C459.0319,58.2526 456.6669,55.6326 458.3889,53.3506 C455.7589,53.3506 453.8659,53.5846 452.0749,53.2596 C451.0619,53.0766 449.8599,52.1616 449.3769,51.2436 C448.6969,49.9476 448.4089,48.3586 448.2959,46.8686 C447.9379,42.1586 447.7389,37.4366 447.4879,32.8816 C449.5979,32.5246 451.4189,32.5646 452.8759,31.8566 C453.9909,31.3136 455.1489,29.9006 455.3249,28.7306 C455.4399,27.9626 453.9679,26.7346 452.9629,26.0936 C452.1849,25.5956 451.0089,25.4626 450.0479,25.5576 C446.7679,25.8826 446.9259,24.2466 447.2769,21.7536 C447.4399,20.5986 446.3899,18.8466 445.3599,18.0596 C444.1269,17.1176 442.5839,17.8036 442.0059,19.3746 C441.2919,21.3126 440.8019,23.3336 440.1529,25.5286 L440.1529,25.5286 Z M606.9479,50.4126 C604.8909,49.5656 603.5529,47.5806 600.8869,49.4526 C599.2539,50.5986 596.6329,50.9756 594.5699,50.7306 C590.8809,50.2936 587.4969,45.6556 587.3039,41.7006 C587.1159,37.8466 588.0549,34.9086 591.8979,32.8206 C595.0139,31.1286 598.1969,30.5636 600.8069,32.8336 C602.1859,34.0336 605.6019,34.1846 606.0019,32.8676 C606.5789,30.9706 607.2819,28.6006 605.2649,27.1236 C600.9339,23.9516 596.2269,22.4856 591.1029,25.3396 C589.2449,26.3736 587.6099,27.8466 585.6929,28.7256 C582.5849,30.1486 581.1619,32.7206 580.6339,35.7656 C580.2879,37.7536 580.5469,39.8756 580.7309,41.9206 C581.1159,46.2206 581.6509,50.3096 585.4149,53.4686 C589.9929,57.3126 598.5269,59.0326 603.8709,56.7416 C606.7329,55.5136 606.0759,52.8486 606.9479,50.4126 L606.9479,50.4126 Z M346.5169,32.8646 C346.8399,32.9516 347.1619,33.0386 347.4849,33.1246 C349.3799,33.1246 351.3419,33.4236 353.1449,33.0156 C354.2739,32.7606 355.5019,31.6056 356.0209,30.5326 C356.3009,29.9526 355.4089,28.1666 354.6539,27.8456 C352.3359,26.8596 349.8289,26.3186 347.0329,25.4976 C347.0329,24.1696 347.2679,22.1986 346.9549,20.3186 C346.7229,18.9226 345.9499,17.5096 345.0609,16.3866 C344.7509,15.9946 343.0289,16.1066 342.5589,16.5846 C341.6329,17.5246 340.7469,18.8206 340.5439,20.0826 C340.2169,22.1116 340.4559,24.2326 340.4559,26.6326 C336.9849,25.8676 334.2409,25.5116 331.6889,27.8016 C330.2689,29.0756 329.8259,30.2996 331.3209,31.0646 C333.2689,32.0616 335.5869,32.5396 337.7939,32.7546 C339.2049,32.8916 339.7479,32.8026 339.7399,34.5526 C339.7229,38.8016 339.8139,43.0876 340.3739,47.2906 C340.7219,49.9016 341.6659,52.5776 342.9469,54.8896 C345.0929,58.7626 350.9999,60.8936 355.3729,59.0806 C356.5639,58.5866 357.5759,56.3426 357.6319,54.8626 C357.6739,53.7556 356.6219,52.3326 354.3559,52.5656 C351.6769,52.8416 348.2299,52.5626 347.7399,48.9426 C347.0209,43.6256 346.8959,38.2276 346.5169,32.8646 L346.5169,32.8646 Z M545.7169,32.6116 C545.7169,35.6096 545.4909,38.4676 545.7819,41.2726 C546.0599,43.9466 546.9889,46.5456 547.4359,49.2106 C548.5609,55.9216 555.2129,59.8616 561.2899,57.0456 C562.9429,56.2796 564.5959,53.2706 563.9569,51.5636 C563.0869,49.2386 561.2169,49.7116 559.3989,50.1646 C558.8149,50.3096 558.1799,50.4676 557.6049,50.3816 C556.7609,50.2546 555.5039,50.1586 555.2049,49.6176 C554.2659,47.9156 553.2769,46.0596 553.0649,44.1766 C552.6359,40.3836 552.7069,36.5336 552.5589,32.3566 C554.3879,32.5936 555.4619,32.8586 556.5319,32.8436 C558.3989,32.8186 560.3849,32.9676 562.0829,32.3686 C563.1459,31.9946 563.8539,30.4336 564.5359,29.2936 C564.6909,29.0346 564.2099,28.1426 563.8009,27.8366 C560.6829,25.4986 557.0399,25.2886 553.0629,25.2246 C552.7259,21.9106 552.3659,18.3796 552.0049,14.8366 C550.1739,14.8366 548.5859,14.3396 547.7629,14.9216 C543.9269,17.6336 546.4049,21.9686 545.3989,25.4566 C543.4269,26.5126 539.7879,25.2236 539.6079,28.6606 C539.4139,32.3656 542.5589,32.6036 545.7169,32.6116 L545.7169,32.6116 Z M512.4019,39.3856 C512.4019,40.0486 512.2699,40.7426 512.4219,41.3676 C513.7979,47.0196 515.4319,52.4326 521.4429,55.1646 C525.0999,56.8266 528.7419,59.0946 532.7539,57.5166 C535.4549,56.4536 537.6989,54.1966 540.0809,52.3856 C540.4829,52.0806 540.6259,51.3496 540.7519,50.7846 C541.0319,49.5246 540.9919,48.1436 541.4979,46.9946 C543.1789,43.1756 542.5419,39.1096 541.4119,35.6586 C540.1139,31.6946 536.8569,28.5186 533.0119,26.3856 C530.7089,25.1066 528.4469,25.0756 525.6889,25.6116 C519.4949,26.8186 512.9749,33.1146 512.4019,39.3856 L512.4019,39.3856 Z M624.5739,58.4216 C627.6869,57.3186 631.2489,56.1926 633.2149,52.7946 C634.8469,49.9736 636.5269,47.0196 637.3009,43.9036 C638.2299,40.1586 638.5029,36.1176 636.0599,32.6256 C635.5019,31.8276 633.6699,31.2346 633.7509,30.7876 C634.2519,28.0166 631.8609,27.9846 630.5049,27.1706 C628.8249,26.1626 626.9819,25.2496 625.0909,24.8186 C623.2869,24.4076 621.2399,24.2926 619.4619,24.7206 C616.6069,25.4086 614.4749,27.0696 612.4059,29.5236 C608.8849,33.7006 608.3099,38.5616 607.7319,43.3816 C607.4259,45.9396 608.3709,48.9756 609.6279,51.3276 C612.6649,57.0096 618.4339,57.7166 624.5739,58.4216 L624.5739,58.4216 Z M467.3699,58.6976 C474.5889,58.4576 480.2249,55.3036 484.8509,50.3976 C487.7719,47.2996 488.6359,43.2126 487.9479,39.0376 C487.3369,35.3296 486.8339,31.4606 483.4659,28.9046 C478.0249,24.7736 471.7899,23.4996 465.1479,23.9696 C461.5259,24.2256 459.8239,26.6496 460.3799,30.2076 C460.4419,30.6066 460.4079,31.0226 460.4079,31.4296 C460.4039,35.7356 460.4329,40.0406 460.3849,44.3456 C460.2809,53.7376 460.1549,63.1296 459.9939,72.5216 C459.9639,74.2636 461.9129,77.0166 463.3289,76.5266 C464.8429,76.0016 467.0859,74.6446 467.1869,73.4906 C467.6169,68.5896 467.3699,63.6286 467.3699,58.6976 L467.3699,58.6976 Z M676.8149,58.6396 C677.9609,58.9476 679.8799,60.0496 681.4759,59.6946 C682.5979,59.4456 683.9749,57.2466 684.0389,55.8626 C684.3179,49.8376 684.1949,43.7926 684.1459,37.7546 C684.1059,32.9736 681.6279,28.9586 678.5339,25.9316 C674.6819,22.1636 665.6769,21.6176 661.6179,30.0846 C657.5829,25.3836 652.9029,25.2896 649.0059,27.9036 C646.6639,26.7296 645.1139,25.3016 643.6209,25.3586 C641.4199,25.4426 640.7239,27.4276 640.7809,29.6356 C640.8679,32.9566 640.7379,36.2816 640.7339,39.6046 C640.7319,41.7636 640.8769,43.9256 640.8009,46.0806 C640.6839,49.3936 640.1189,52.7306 640.4119,55.9966 C640.5139,57.1386 642.4349,58.5446 643.8089,59.0336 C645.4379,59.6126 647.0159,58.8976 647.4089,56.7416 C647.6809,55.2506 648.4579,53.8226 648.5619,52.3346 C648.9619,46.6076 649.3709,40.8896 651.7029,35.5536 C652.0429,34.7766 653.1869,33.8406 653.9149,33.8756 C654.8069,33.9186 656.2349,34.7706 656.4119,35.5136 C656.9949,37.9746 657.2249,40.5356 657.3939,43.0716 C657.6289,46.5896 657.5849,50.1266 657.8539,53.6396 C658.0219,55.8436 660.8779,57.7696 662.3529,56.8756 C663.2129,56.3536 664.0149,55.7366 664.8239,55.1756 C665.1559,49.5636 665.1839,43.6676 665.9699,37.8736 C666.4339,34.4506 667.6459,30.8296 673.0329,30.1346 C673.9939,32.1686 675.4469,34.5076 676.1939,37.0526 C676.8259,39.2076 676.7529,41.5996 676.7909,43.8906 C676.8699,48.5896 676.8149,53.2916 676.8149,58.6396 L676.8149,58.6396 Z M270.4009,86.7446 L270.4009,312.7326 C276.3659,313.2916 282.2889,314.8816 287.8809,314.1026 C294.4759,313.1836 300.9199,314.2646 307.4119,313.7496 C309.8759,313.5536 312.3789,313.9146 314.8589,313.8446 C318.1959,313.7516 321.5279,313.3336 324.8619,313.3376 C328.5539,313.3416 332.2449,313.7836 335.9379,313.8186 C341.2069,313.8696 346.4769,313.7126 351.7469,313.6666 C355.8899,313.6296 360.0339,313.5976 364.1769,313.6186 C366.2129,313.6296 368.2519,313.8796 370.2839,313.8206 C373.5549,313.7266 376.8209,313.3136 380.0889,313.3126 C384.5439,313.3116 388.9979,313.6656 393.4539,313.6946 C400.2089,313.7386 406.9649,313.5836 413.7199,313.6066 C419.5549,313.6266 425.3909,313.8896 431.2239,313.8376 C437.0339,313.7856 442.8409,313.3896 448.6509,313.3146 C451.1679,313.2826 453.6879,313.7296 456.2119,313.8556 C457.5239,313.9216 458.8469,313.7436 460.1659,313.7106 C462.8809,313.6416 465.5969,313.5326 468.3119,313.5586 C471.1619,313.5846 474.0119,313.8726 476.8589,313.8226 C480.8779,313.7526 484.8919,313.4366 488.9099,313.3056 C491.4169,313.2236 493.9279,313.2896 497.0199,313.2896 L497.0199,86.7446 L270.4009,86.7446 Z M520.0379,313.7126 L745.8539,313.7126 L745.8539,87.3886 C744.6689,87.0556 743.6329,86.5026 742.6059,86.5196 C736.4129,86.6216 730.2229,86.9896 724.0309,87.0016 C718.6059,87.0126 713.1809,86.5186 707.7559,86.5286 C701.9479,86.5396 696.1409,86.9456 690.3309,87.0566 C684.0899,87.1746 677.8469,87.1836 671.6039,87.1796 C663.3889,87.1756 655.1729,87.1276 646.9579,87.0696 C639.5579,87.0176 632.1589,86.8616 624.7599,86.8666 C615.5419,86.8736 606.3239,87.1086 597.1069,87.0466 C584.6269,86.9636 572.1479,86.6806 559.6689,86.5126 C557.3169,86.4816 554.9639,86.5776 552.6119,86.6386 C548.0139,86.7576 543.4149,87.0276 538.8189,86.9756 C535.5659,86.9386 532.3199,86.2866 529.0679,86.263295 C526.5889,86.2466 524.1099,86.9456 521.6219,87.0226 C519.7929,87.0786 519.3159,88.1316 519.2999,89.4966 C519.2279,95.5586 519.2489,101.6236 519.2579,107.6866 C519.2669,114.1216 519.2569,120.5566 519.3369,126.9896 C519.3879,131.1166 519.6289,135.2406 519.7069,139.3676 C519.7989,144.1966 520.6349,149.2086 519.6299,153.8096 C518.4829,159.0646 520.3509,164.0156 519.6359,169.1426 C519.1629,172.5316 519.8399,176.0686 519.8179,179.5376 C519.7969,182.9796 519.4719,186.4196 519.4139,189.8626 C519.3529,193.4416 519.5099,197.0246 519.4669,200.6056 C519.4059,205.7166 519.1689,210.8276 519.1499,215.9386 C519.1219,223.6116 519.2349,231.2846 519.2389,238.9586 C519.2399,239.9246 518.7749,240.8996 518.8219,241.8566 C519.0609,246.7846 519.5279,251.7046 519.6619,256.6336 C519.8009,261.7746 519.7409,266.9256 519.6029,272.0676 C519.4609,277.3456 518.8429,282.6226 518.9299,287.8906 C519.0669,296.1916 519.6189,304.4846 520.0379,313.7126 L520.0379,313.7126 Z M410.1609,55.1756 C411.4229,59.2896 414.3409,60.9936 418.5029,61.3836 C423.3779,61.8396 428.1509,60.7326 431.3879,57.5996 C434.9759,54.1276 436.2209,49.1216 434.2139,43.9106 C433.2339,41.3686 428.1659,38.0916 424.8959,37.7026 C422.3589,37.4016 419.8839,36.5776 417.2229,35.9476 C419.5399,30.9126 423.6399,30.8236 429.9659,34.9116 C430.6629,34.3366 431.2949,33.6286 432.0789,33.2016 C434.4879,31.8876 434.7769,29.1926 432.2749,28.1116 C426.9939,25.8336 421.5419,23.6886 415.7519,26.6326 C412.3749,28.3496 410.8229,31.2346 410.8029,34.9646 C410.7809,38.7786 412.4639,41.5506 415.7619,42.6676 C418.3529,43.5456 421.0409,44.1686 423.7169,44.7616 C427.7779,45.6606 429.2399,48.7216 426.8959,51.6166 C425.2689,53.6266 420.4209,54.8156 417.9919,53.9606 C416.0039,53.2606 413.9349,52.7886 411.9029,52.2156 C411.9759,52.5416 412.0499,52.8676 412.1229,53.1936 C411.4389,53.8846 410.7549,54.5756 410.0709,55.2666 C409.5739,54.5956 408.9849,53.9726 408.5979,53.2426 C407.6379,51.4316 406.0939,49.6066 405.9929,47.7226 C405.7109,42.4696 406.0839,37.1836 406.1069,31.9106 C406.1139,30.1396 405.7539,27.9716 403.7779,27.7806 C401.9339,27.6016 399.3689,27.6336 399.0939,30.6316 C398.8729,33.0276 398.7889,35.4396 398.4849,37.8246 C397.9549,41.9766 397.5159,46.1646 396.5519,50.2216 C396.3049,51.2626 393.9029,52.7776 393.0759,52.4746 C391.6309,51.9466 389.0939,53.2726 388.6619,50.4286 C388.1309,46.9376 387.2319,43.4876 386.9299,39.9816 C386.6229,36.4176 386.7459,32.8046 386.8789,29.2206 C386.9659,26.8646 385.1589,25.8196 383.7039,25.6796 C382.6109,25.5736 380.5279,27.1676 380.2979,28.2926 C379.6539,31.4556 379.4119,34.7876 379.6179,38.0146 C379.8949,42.3276 380.6659,46.6166 381.3699,50.8916 C381.9289,54.2896 383.5609,57.6676 386.6989,58.6956 C391.9289,60.4096 397.3609,60.2596 401.2199,56.5756 C403.2179,57.5776 404.8459,58.6156 406.6199,59.2246 C408.5219,59.8766 409.6369,58.5156 409.3119,56.3986 C409.2579,56.0436 409.8599,55.5876 410.1609,55.1756 L410.1609,55.1756 Z M294.9079,340.2296 L294.9079,356.3736 C294.9079,382.8346 294.9079,409.2946 294.9079,435.7556 C294.9079,438.3006 295.2389,440.9076 294.7809,443.3676 C294.5039,444.8596 293.2769,446.8186 291.9889,447.3216 C290.2769,447.9916 288.8789,445.4656 289.0049,442.9806 C289.1249,440.6106 288.7919,438.2206 288.8339,435.8426 C288.9309,430.4416 289.2049,425.0436 289.2699,419.6426 C289.3089,416.4346 288.9819,413.2216 289.0059,410.0126 C289.0499,404.0986 289.3619,398.1846 289.3229,392.2716 C289.2789,385.5116 288.9019,378.7556 288.8059,371.9946 C288.7349,367.0126 288.9039,362.0276 288.9249,357.0426 C288.9439,352.3766 288.8579,347.7086 288.9169,343.0426 C288.9459,340.7376 287.8949,340.1196 285.7199,340.2026 C280.0029,340.4206 274.2779,340.4376 268.5559,340.5536 C264.4709,340.6366 260.3859,340.7726 256.2999,340.8416 C253.6979,340.8856 251.0939,340.9046 248.4929,340.8376 C245.3059,340.7566 243.4209,338.7736 243.4189,335.6016 C243.4119,326.9446 243.4599,318.2876 243.4019,309.6316 C243.3559,302.6686 243.1309,295.7066 243.0969,288.7436 C243.0789,285.0556 243.3419,281.3686 243.3989,277.6796 C243.4559,273.9766 242.8609,270.1626 243.5709,266.6006 C244.2979,262.9496 242.7569,259.6486 243.1349,256.0966 C243.5039,252.6196 242.8749,249.0486 242.9739,245.5276 C243.0979,241.0906 243.6509,236.6656 243.7629,232.2286 C243.8499,228.8086 243.3629,225.3736 243.4599,221.9546 C243.5729,217.9306 242.1639,213.8946 243.8509,209.8336 C244.3469,208.6416 243.4239,206.9166 243.3699,205.4286 C243.1719,199.9966 242.9699,194.5616 242.9529,189.1266 C242.9329,182.8726 243.1609,176.6186 243.1779,170.3636 C243.1889,166.2206 242.9569,162.0776 242.9469,157.9336 C242.9389,154.7246 243.1869,151.5146 243.1789,148.3056 C243.1649,142.7416 242.8949,137.1746 242.9989,131.6146 C243.1199,125.0966 243.5749,118.5856 243.7779,112.0676 C243.8329,110.2896 243.4819,108.5006 243.3509,106.7136 C243.2339,105.1096 243.0849,103.5026 243.0859,101.8976 C243.0879,97.1916 242.6379,92.4056 243.3419,87.8006 C244.1009,82.8426 242.5389,78.1446 242.8199,73.3156 C242.9369,71.2976 243.2999,69.2936 243.3939,67.2756 C243.4949,65.1176 243.4359,62.9506 243.4039,60.7876 C243.3469,56.9086 243.2179,53.0296 243.1959,49.1496 C243.1839,47.0046 243.4239,44.8556 243.3779,42.7116 C243.2759,37.9726 243.0349,33.2366 242.9099,28.4976 C242.8369,25.7426 242.8709,22.9846 242.8669,20.2286 C242.8619,16.8306 242.8729,13.4316 242.8659,10.0336 C242.8649,9.1156 242.7969,8.1966 242.8089,7.2796 C242.8759,2.1286 245.4709,0.2136 250.7449,0.7806 C253.5279,1.0786 256.3999,0.4206 259.2319,0.4136 C264.3749,0.4006 269.5199,0.6606 274.6619,0.6056 C279.8179,0.5506 284.9719,0.1086 290.1269,0.0996 C294.7579,0.0926 299.3879,0.5726 304.0189,0.5966 C307.8669,0.6156 311.7149,0.2056 315.5659,0.1286 C319.4219,0.0526 323.2829,0.1826 327.1409,0.1706 C332.4619,0.1526 337.7839,-0.0064 343.1039,0.0686 C347.8869,0.1366 352.6649,0.5486 357.4469,0.5976 C360.6439,0.6306 363.8429,0.2336 367.0439,0.1576 C368.2119,0.1286 369.3919,0.6386 370.5609,0.6136 C377.5259,0.4706 384.4889,0.1586 391.4539,0.0826 C394.4869,0.0496 397.5249,0.6166 400.5589,0.6026 C405.3449,0.5806 410.2899,-0.5404 414.8769,0.3316 C421.0159,1.4986 427.0479,-0.3484 433.1719,0.9586 C437.0569,1.7876 441.3089,0.8176 445.3969,0.7916 C448.2219,0.7736 451.0499,1.1266 453.8729,1.0736 C459.6469,0.9666 465.4159,0.6306 471.1889,0.5236 C474.0859,0.4696 476.9889,0.7826 479.8889,0.7946 C482.3039,0.8056 484.7209,0.6206 487.1359,0.5216 C489.5329,0.4236 491.9319,0.2186 494.3269,0.2486 C498.7909,0.3056 503.2539,0.4866 507.7169,0.6386 C512.7229,0.8086 517.7259,1.0866 522.7329,1.1466 C524.6929,1.1696 526.6549,0.5796 528.6239,0.5206 C535.2609,0.3226 541.9019,0.1886 548.5419,0.1396 C550.5389,0.1246 552.5349,0.5666 554.5369,0.6216 C557.6989,0.7076 560.8639,0.6596 564.0279,0.6386 C570.3029,0.5976 576.5789,0.4256 582.8519,0.5146 C589.3529,0.6066 595.8529,1.1516 602.3509,1.1166 C609.2179,1.0796 616.0809,0.4566 622.9499,0.3436 C628.4199,0.2536 633.8969,0.5616 639.3709,0.6586 C642.2859,0.7106 645.2029,0.7586 648.1169,0.6866 C654.2179,0.5336 660.3179,0.1246 666.4159,0.1626 C670.2599,0.1866 674.1019,1.1496 677.9409,1.1276 C685.9659,1.0796 693.9859,0.5896 702.0119,0.4206 C706.0449,0.3366 710.0839,0.6166 714.1209,0.6306 C724.1059,0.6656 734.0919,0.6256 744.0779,0.6506 C747.7709,0.6596 751.4649,0.8636 755.1559,0.7966 C758.1109,0.7426 761.0649,0.4566 764.0129,0.1946 C766.7029,-0.0444 770.3469,2.9756 770.2709,5.7256 C769.9819,16.1326 769.6709,26.5226 770.4199,36.9406 C770.7829,41.9946 770.1029,47.1186 769.9929,52.2136 C769.8379,59.3566 769.7259,66.5026 769.7009,73.6476 C769.6939,75.6856 770.1779,77.7226 770.2189,79.7656 C770.3769,87.5136 770.5619,95.2646 770.5059,103.0126 C770.4689,108.0686 769.9549,113.1206 769.8179,118.1786 C769.7599,120.3136 770.1169,122.4606 770.2959,124.6016 C770.3739,125.5396 770.6689,126.5016 770.5409,127.4066 C769.4299,135.2746 770.1399,143.1446 770.4069,151.0166 C770.4709,152.9326 770.3209,154.8546 770.3349,156.7736 C770.3619,160.6356 771.1249,164.6456 770.3369,168.3276 C768.8859,175.1046 771.1979,181.7456 770.1449,188.5156 C769.4389,193.0576 770.3929,197.8396 770.4019,202.5146 C770.4099,206.6616 770.0129,210.8096 770.0279,214.9556 C770.0409,218.8796 770.7169,222.8296 770.4199,226.7166 C770.2029,229.5496 770.0589,232.2496 770.3489,235.1166 C770.7639,239.2156 770.3489,243.4046 770.2159,247.5526 C770.0909,251.4706 769.7049,255.3856 769.7369,259.2996 C769.7749,264.0466 770.1419,268.7896 770.3449,273.5356 C770.4089,275.0466 770.4169,276.5616 770.4289,278.0746 C770.4589,281.7296 770.6399,285.3916 770.4669,289.0366 C770.0249,298.3046 771.0189,307.5626 770.4599,316.8376 C770.1709,321.6346 770.6029,326.4706 770.5539,331.2876 C770.5319,333.4896 770.4069,335.7666 769.7909,337.8506 C769.4999,338.8386 767.9769,340.0816 766.9589,340.1306 C761.8579,340.3756 756.7369,340.1966 751.6259,340.2996 C746.9489,340.3946 742.2769,340.7106 737.6009,340.8296 C734.2889,340.9136 730.9459,341.0796 727.6679,340.7286 C725.6649,340.5146 725.1929,341.0336 725.2159,342.8236 C725.2659,346.7366 725.2309,350.6506 725.2309,354.5636 C725.2309,380.6156 725.2239,406.6676 725.2469,432.7196 C725.2479,434.4576 725.1279,436.4576 723.0779,436.3116 C721.7329,436.2166 719.8589,434.8546 719.3669,433.6086 C718.7129,431.9496 719.1489,429.8506 719.1589,427.9416 C719.2069,418.4356 719.2469,408.9306 719.3299,399.4246 C719.4389,387.0396 719.6089,374.6546 719.7039,362.2696 C719.7579,355.2706 719.7139,348.2716 719.7139,341.0496 C715.8589,340.7636 712.1549,340.4886 708.0669,340.1856 L708.0669,352.0496 C708.0669,381.7796 708.0219,411.5106 708.1439,441.2396 C708.1549,443.8596 706.9189,444.8536 704.9319,444.9426 C702.5079,445.0516 702.5409,443.0226 702.5419,441.2166 C702.5549,422.4186 702.5499,403.6206 702.5499,384.8216 C702.5499,370.7046 702.5519,356.5876 702.5419,342.4706 C702.5419,341.7716 702.4389,341.0726 702.4039,340.6306 C676.8329,340.3926 651.4029,340.0436 625.9719,339.9516 C599.5529,339.8556 573.1319,340.0226 546.7109,340.0516 C520.2869,340.0806 493.8629,340.0806 467.4379,340.0936 L389.5879,340.2286 C363.4669,340.2286 337.3449,340.2286 311.1219,340.2286 C311.1219,344.9876 311.1389,349.5456 311.1179,354.1026 C311.0929,359.5516 310.9669,365.0016 311.0159,370.4496 C311.0549,374.7796 311.3879,379.1076 311.4159,383.4376 C311.4519,389.0026 311.2579,394.5696 311.2629,400.1366 C311.2719,409.7566 311.4289,419.3776 311.3839,428.9986 C311.3599,433.9366 310.9369,438.8726 310.8909,443.8106 C310.8709,445.9686 309.8789,446.3206 308.0489,446.3266 C305.7929,446.3326 305.7439,444.7106 305.6869,443.2946 C305.5329,439.4866 305.4989,435.6706 305.5299,431.8586 C305.6069,422.4326 305.8399,413.0076 305.8309,403.5816 C305.8229,395.7846 305.4639,387.9876 305.4439,380.1896 C305.4319,375.3826 305.8749,370.5756 305.9059,365.7666 C305.9339,361.4976 305.5919,357.2266 305.5689,352.9556 C305.5509,349.5806 305.7319,346.2026 305.8989,342.8296 C305.9959,340.8686 305.5849,339.8836 303.2139,340.1586 C300.5529,340.4666 297.8279,340.2296 294.9079,340.2296 L294.9079,340.2296 Z" id="Fill-16"></path>
            <path d="M562.1386,220.7565 C563.7686,220.9305 565.1626,221.9755 567.0466,220.3555 C568.1796,219.3815 570.7876,220.1365 572.7326,220.0935 C577.6096,219.9855 582.4866,219.7785 587.3636,219.7755 C592.1666,219.7735 596.9686,220.0305 601.7726,220.0555 C603.7856,220.0655 605.8046,219.6105 607.8116,219.6745 C608.8746,219.7075 609.9246,220.3815 610.9666,220.8015 C611.4806,221.0095 611.9616,221.2975 612.3026,221.4705 C611.8996,219.5355 611.3336,217.9005 611.2536,216.2415 C610.9586,210.1465 610.6926,204.0435 610.6736,197.9425 C610.6586,193.0465 611.1016,188.1505 611.1796,183.2515 C611.2356,179.7835 611.0176,176.3115 610.9316,172.8415 C610.8786,170.7165 613.2096,167.9325 615.1706,168.0975 C615.8816,168.1575 616.5106,169.1805 617.3306,169.8965 C618.2836,169.4095 619.8176,168.4295 619.7816,171.2245 C619.7136,176.5545 619.5276,181.8835 619.4966,187.2135 C619.4826,189.6285 619.7196,192.0445 619.8466,194.4595 C620.0086,197.5515 620.2596,200.6415 620.3206,203.7355 C620.4116,208.4335 620.0966,213.1565 620.4906,217.8245 C620.7256,220.6195 617.9506,220.6805 617.3256,222.4935 C616.3496,222.1155 615.3736,221.7385 614.4596,221.3845 C613.7716,223.4675 612.9836,225.8505 612.0546,228.6585 C608.3466,228.0785 604.4516,229.7705 600.3166,228.3015 C598.5486,227.6725 596.1906,228.9225 594.0966,228.9485 C587.1716,229.0345 580.2456,228.8945 573.3206,228.9645 C571.0116,228.9875 568.6996,229.3315 566.4006,229.6165 C564.2376,229.8855 559.8706,226.7235 560.3966,225.1345 C560.9016,223.6115 561.6086,222.1545 562.2266,220.6695 L562.1386,220.7565 Z" id="Fill-19"></path>
            <path d="M608.362,119.157 C610.005,121.15 611.566,122.768 612.788,124.612 C613.805,126.143 614.444,127.908 612.616,129.508 C610.739,131.151 608.814,131.316 606.875,129.755 C604.783,128.072 602.776,126.283 600.516,124.356 C598.729,126.341 597.176,128.671 595.047,130.202 C593.788,131.108 590.983,131.53 590.031,130.752 C588.966,129.883 588.606,127.244 589.036,125.676 C589.602,123.609 591.237,121.834 592.539,119.729 C591.879,119.487 591.131,119.129 590.343,118.939 C587.885,118.346 585.13,118.576 585.778,114.335 C586.122,112.085 587.18,109.65 589.591,109.935 C590.577,110.051 591.568,110.176 592.532,110.4 C593.497,110.625 594.433,110.979 595.778,111.4 C596.307,107.637 595.066,102.504 602.282,102.8 C602.978,105.107 603.831,107.937 604.751,110.989 C606.99,110.074 608.998,108.665 611.058,108.585 C612.945,108.51 614.888,109.871 617.225,110.758 C615.96,113.09 615.381,115.217 613.999,116.425 C612.432,117.795 610.144,118.341 608.362,119.157" id="Fill-21"></path>
            <path d="M706.2325,110.8451 C706.4125,109.1581 706.0825,106.7631 707.0275,105.0871 C707.8115,103.6971 710.0965,103.1531 711.5385,102.3351 C713.8925,104.2181 714.8785,106.2291 713.9955,108.9731 C713.9275,109.1831 715.3915,110.1761 716.2205,110.3021 C717.0225,110.4241 717.9765,110.0091 718.7715,109.6341 C723.4525,107.4321 723.6085,107.4491 726.8035,111.2221 C726.5735,116.5111 722.5675,117.7301 718.8235,118.9651 C720.3645,120.9851 722.1575,122.7571 723.1775,124.8971 C723.7575,126.1151 723.5955,128.2801 722.8475,129.4091 C721.5265,131.4021 719.0935,131.2271 717.3375,130.0141 C715.0765,128.4521 713.1705,126.3761 710.9195,124.3471 C709.1145,126.3211 707.5555,128.6071 705.4445,130.1211 C704.1625,131.0411 701.4645,131.5531 700.4295,130.8131 C699.3765,130.0591 698.9615,127.3711 699.3885,125.8441 C699.9815,123.7201 701.6195,121.8881 702.9085,119.7681 C700.5275,118.9421 698.0885,118.0961 695.4925,117.1951 C697.1325,114.6981 694.6965,111.0381 698.3805,110.4461 C700.7835,110.0601 703.3445,110.6611 706.2325,110.8451" id="Fill-23"></path>
            <path d="M642.0047,111.084 C644.0897,110.197 645.8297,109.504 647.5297,108.722 C649.6907,107.727 652.7647,108.401 653.4277,110.868 C653.8587,112.471 652.5327,114.719 651.5757,116.446 C651.1357,117.239 649.6967,117.487 648.6997,117.961 C647.7457,118.415 646.7787,118.841 646.0307,119.181 C647.3857,120.912 649.1147,122.525 650.0427,124.511 C650.6687,125.851 650.7777,128.116 650.0337,129.262 C648.7287,131.271 646.3017,131.428 644.3507,129.946 C642.1867,128.303 640.2867,126.313 638.0307,124.254 C636.1427,126.353 634.5517,128.739 632.3727,130.308 C631.1357,131.197 628.5567,131.41 627.2927,130.687 C626.3187,130.13 625.7877,127.413 626.2447,126.057 C627.0017,123.812 628.7127,121.89 630.2367,119.493 C628.9307,119.189 627.7547,118.841 626.5527,118.653 C624.2837,118.3 623.1817,117.847 623.3527,114.766 C623.4637,112.78 623.3897,111.154 625.0857,110.593 C626.7247,110.05 628.6957,110.404 630.5077,110.537 C631.3437,110.599 632.1497,111.075 633.3157,111.485 C633.3757,107.212 633.1287,102.698 640.0097,102.646 C640.5857,105.082 641.2347,107.828 642.0047,111.084" id="Fill-25"></path>
            <path d="M674.3807,124.4592 C673.4707,125.5622 671.9467,127.2792 670.5797,129.1122 C669.7227,130.2612 665.3907,131.7992 664.6497,130.7812 C663.7527,129.5472 662.8167,127.5582 663.2197,126.3282 C663.9927,123.9672 665.6967,121.9122 667.1567,119.4952 C665.6257,119.1522 663.9007,118.6072 662.1367,118.4132 C660.1987,118.1992 660.2227,116.9852 660.2587,115.5842 C660.3667,111.3382 661.5627,109.4712 664.1757,109.8962 C666.1747,110.2212 668.1087,110.9402 670.0277,111.4722 C670.3737,109.5932 670.3307,107.4762 671.1917,105.8342 C672.0137,104.2682 673.7797,103.1972 675.6877,101.3762 C676.7647,103.4982 677.6447,104.7422 678.0277,106.1242 C678.4207,107.5452 678.3297,109.1012 678.5027,111.2502 C680.9897,110.1812 682.8697,109.0542 684.8987,108.6132 C686.2537,108.3172 688.0637,108.6142 689.2217,109.3512 C690.2717,110.0192 690.8607,111.3012 690.4137,113.1632 C689.3647,117.5352 685.3897,117.4892 682.8867,119.2082 C684.3457,121.0572 686.2657,122.9262 687.4217,125.1862 C688.0157,126.3472 687.7927,128.6582 686.9727,129.6462 C685.5677,131.3392 682.9977,131.1302 681.2957,130.1862 C679.0767,128.9552 677.2937,126.9392 674.3807,124.4592" id="Fill-27"></path>
            <path d="M555.7205,119.6818 C554.8255,119.3658 554.0115,118.9028 553.1565,118.8078 C550.5785,118.5208 548.4135,118.7098 549.0065,114.5518 C549.4715,111.2898 550.0925,109.4488 553.0815,110.1338 C554.9685,110.5668 556.8545,111.0008 559.0675,111.5088 C559.0315,107.4648 558.4555,102.9668 564.0635,102.6748 C568.3965,104.1388 566.1155,108.2348 567.4205,111.2858 C569.4415,110.3108 571.1945,109.4368 572.9735,108.6158 C575.1005,107.6348 577.9475,108.5588 578.8405,110.8938 C579.6495,113.0088 578.8605,115.1308 576.9965,116.4058 C575.2895,117.5748 573.2895,118.3168 571.0765,119.4168 C572.4425,120.6438 573.6635,121.6898 574.8275,122.7968 C577.3125,125.1618 577.1395,128.9868 574.2255,130.3458 C573.0885,130.8768 571.2705,130.4908 569.9745,129.9808 C568.7285,129.4918 567.7025,128.3628 566.6805,127.4058 C565.7435,126.5298 564.9415,125.5088 563.6965,124.1248 C561.9085,126.1948 560.3605,128.4868 558.3075,130.1618 C557.2245,131.0468 555.2395,131.1448 553.7085,131.0208 C553.0075,130.9638 551.8945,129.5168 551.8905,128.6958 C551.8825,127.0928 552.3185,125.3988 552.9535,123.9058 C553.5575,122.4848 554.6505,121.2718 555.7205,119.6818" id="Fill-29"></path>
            <path d="M702.0626,226.5991 C702.9276,227.5701 703.5236,228.2381 704.1636,228.9551 C705.4986,227.9691 706.7566,227.4691 706.8436,230.1061 C707.0006,234.9071 707.9956,239.8721 707.0606,244.4461 C706.4976,247.2001 708.1976,249.2921 707.3786,251.9351 C706.6536,254.2741 707.2736,257.0281 707.2956,259.5991 C707.3476,265.6341 707.5776,271.6781 707.3026,277.6991 C707.2446,278.9611 705.4236,280.2521 704.1976,281.2691 C703.9136,281.5061 702.7726,280.5441 701.9736,280.3521 C696.0156,278.9211 698.6346,274.0601 698.2396,270.5991 C697.7376,266.1901 697.8536,261.7061 697.7776,257.2531 C697.6996,252.6131 697.6276,247.9701 697.7116,243.3311 C697.7676,240.2331 698.5906,237.1921 697.7626,234.0231 C697.4066,232.6581 697.6856,230.8041 698.3866,229.5781 C699.0786,228.3691 700.6676,227.6731 702.0626,226.5991" id="Fill-31"></path>
            <path d="M640.6801,169.9643 C641.0581,169.7873 641.8311,169.4263 643.1181,168.8253 C643.1181,175.2513 643.0481,181.1533 643.1411,187.0513 C643.2101,191.3843 643.5541,195.7113 643.6651,200.0443 C643.8211,206.1043 644.1201,212.1793 643.7971,218.2183 C643.7171,219.7153 641.7211,221.8653 640.1791,222.3463 C638.0031,223.0243 635.0411,219.3933 635.0161,217.1553 C634.9681,212.9343 634.6531,208.7183 634.5161,204.4983 C634.3081,198.1203 634.0441,191.7413 634.0201,185.3613 C634.0021,180.7803 634.0601,176.1603 634.6831,171.6403 C634.8681,170.2903 637.0041,169.1193 638.4291,168.1283 C638.6411,167.9803 639.8601,169.2793 640.6801,169.9643" id="Fill-33"></path>
            <path d="M643.108,228.2875 C643.108,234.9065 642.964,240.8485 643.145,246.7805 C643.359,253.7515 643.934,260.7105 644.193,267.6805 C644.316,270.9815 644.183,274.3065 643.916,277.6005 C643.844,278.4905 642.892,279.3335 642.276,280.1475 C641.851,280.7085 641.309,281.1835 640.635,281.8895 C639.23,281.2045 637.066,280.7835 636.033,279.4725 C634.958,278.1075 634.624,275.8895 634.583,274.0315 C634.493,269.9005 634.926,265.7595 634.891,261.6245 C634.846,256.2615 634.469,250.9005 634.405,245.5365 C634.374,242.9175 634.839,240.2955 634.876,237.6715 C634.907,235.4825 634.623,233.2905 634.515,231.0975 C634.44,229.5945 634.73,228.3835 636.706,228.8055 C636.937,228.8555 637.253,228.9435 637.41,228.8365 C639.418,227.4795 639.413,227.4715 640.275,229.5915 C641.037,229.2405 641.804,228.8875 643.108,228.2875" id="Fill-35"></path>
            <path d="M617.1998,226.8482 C617.5388,227.5262 617.8848,228.2182 618.2518,228.9542 C618.9138,228.6472 619.6558,228.3022 620.3348,227.9872 C620.6298,228.2362 620.8968,228.3552 620.8998,228.4802 C621.0218,234.1022 621.1088,239.7252 621.2238,245.3472 C621.3648,252.2492 621.4918,259.1522 621.6918,266.0532 C621.7978,269.6892 622.2438,273.3292 622.1078,276.9512 C622.0668,278.0622 620.5578,279.0882 619.8068,280.2112 C618.4288,282.2692 617.4518,281.6112 616.5258,279.8372 C616.4528,279.6972 616.0068,279.7702 615.7428,279.7082 C613.7798,279.2412 612.5168,278.7822 612.8538,275.9632 C613.2938,272.2882 612.5278,268.4822 612.4678,264.7292 C612.3978,260.3742 612.5708,256.0162 612.5658,251.6592 C612.5588,245.6112 612.6528,239.5562 612.3758,233.5182 C612.2168,230.0452 613.7328,228.1032 617.1998,226.8482" id="Fill-37"></path>
            <path d="M562.2261,220.669 C561.9201,220.684 561.4321,220.583 561.3351,220.733 C559.5331,223.527 557.4241,221.741 555.5391,221.023 C552.6091,219.907 553.3951,216.945 553.2531,214.856 C552.8661,209.188 552.9451,203.481 553.0181,197.791 C553.1021,191.258 553.4061,184.728 553.5411,178.196 C553.5611,177.227 553.0451,176.256 553.0101,175.278 C552.8711,171.486 553.4381,170.584 557.5551,167.854 C558.0861,168.652 558.6191,169.455 559.1981,170.325 C559.7441,170.009 560.4671,169.592 562.1971,168.593 C562.1971,172.815 562.1631,176.288 562.2051,179.76 C562.2541,183.78 562.4071,187.799 562.4481,191.819 C562.5361,200.296 562.6001,208.774 562.61811,217.252 C562.6201,218.419 562.3061,219.588 562.1381,220.756 C562.1381,220.756 562.2261,220.669 562.2261,220.669" id="Fill-39"></path>
            <path d="M703.0346,168.1105 C703.3786,168.6355 703.8606,169.3715 704.4846,170.3225 C704.9366,170.0455 705.6486,169.6085 706.6946,168.9675 C706.9776,170.4665 707.3706,171.7135 707.4216,172.9745 C707.5866,177.0265 707.6966,181.0825 707.6936,185.1375 C707.6896,189.6825 707.4336,194.2295 707.4796,198.7735 C707.5426,204.9675 707.6496,211.1685 708.0166,217.3495 C708.1866,220.2295 706.0236,221.1675 704.4056,222.4105 C703.3226,223.2425 698.9276,219.9595 698.8906,218.4535 C698.8266,215.8765 698.9366,213.2945 698.8536,210.7185 C698.7166,206.4615 698.3746,202.2095 698.3176,197.9535 C698.2446,192.5405 698.3866,187.1245 698.4006,181.7095 C698.4056,179.6225 698.2266,177.5325 698.2876,175.4485 C698.3826,172.2085 698.4406,168.8715 703.0346,168.1105" id="Fill-41"></path>
            <path d="M696.95257,161.3047 C696.9852,165.3387 694.8082,167.8747 690.7022,167.9437 C688.0722,167.9867 685.4252,167.3497 682.8022,167.4537 C679.2052,167.5967 675.6302,168.2517 672.0322,168.4987 C669.3832,168.6807 666.7142,168.5657 664.0532,168.5717 C660.9432,168.5787 657.7952,168.8707 654.7322,168.4887 C651.5602,168.0927 648.2252,169.3427 645.1692,167.2857 C643.3962,166.0927 642.1012,165.2237 643.9132,163.1287 C644.2292,162.7627 644.5912,162.2557 644.5842,161.8187 C644.5472,159.4617 646.0272,159.7357 647.3212,160.3757 C648.1812,160.8017 648.5252,161.3657 648.7232,159.9297 C648.7762,159.5407 649.6482,158.9467 650.0992,158.9837 C652.5342,159.1857 654.9532,159.5677 657.3812,159.8607 C657.8662,159.9197 658.3652,159.8667 658.8562,159.8527 C663.5932,159.7147 668.3312,159.6127 673.0652,159.4217 C676.1152,159.2977 679.1572,158.9687 682.2082,158.8657 C685.3472,158.7597 688.5222,158.5527 691.6232,158.9067 C693.3412,159.1037 694.9392,160.3577 696.95257,161.3047" id="Fill-43"></path>
            <path d="M645.0307,220.4984 C646.8567,221.4884 648.0537,221.4014 649.7917,220.3704 C651.3907,219.4224 653.9707,220.1404 656.1187,220.0984 C659.9277,220.0234 663.7377,219.9354 667.5477,219.8394 C668.7457,219.8084 669.9447,219.6674 671.1407,219.6954 C674.7367,219.7774 678.3327,220.0304 681.9267,220.0024 C685.1667,219.9784 688.4287,219.3614 691.6337,219.6114 C693.3847,219.7474 695.1287,221.0074 696.6647,222.0664 C697.0127,222.3074 696.6267,223.8644 696.3287,224.7284 C695.9247,225.9014 695.2797,226.9914 694.4987,228.6144 C691.1037,228.0714 687.2097,229.7714 683.0787,228.3034 C681.3107,227.6754 678.9597,228.8814 676.8637,228.9494 C668.8897,229.2094 660.9127,229.4694 652.9377,229.4574 C650.3607,229.4534 647.7117,228.8454 645.2337,228.0734 C643.5077,227.5344 642.0037,226.3754 643.9807,224.1614 C644.6477,223.4134 644.6187,222.0434 645.0307,220.4984" id="Fill-45"></path>
            <path d="M648.0212,282.9135 C648.8572,282.3485 649.5192,281.5505 650.2602,281.4695 C652.0862,281.2705 653.9472,281.3995 655.7942,281.3985 C666.7852,281.3965 677.7882,281.6905 688.7572,281.2105 C691.9722,281.0695 693.9062,283.5355 697.3642,283.2215 C696.4512,285.5845 695.6602,287.6295 694.7712,289.9315 C690.7872,289.9775 686.7572,290.8435 682.4682,289.6105 C679.8002,288.8435 676.6242,289.8895 673.6722,290.0585 C668.6182,290.3475 663.5632,290.6795 658.5032,290.8075 C656.0402,290.8705 653.5042,290.1045 651.1172,290.4695 C649.0582,290.7845 647.1672,291.1425 645.4482,289.8995 C643.9852,288.8415 641.7332,287.7875 644.1452,285.4745 C644.3422,285.2855 644.4822,284.9185 644.4652,284.6455 C644.2042,280.3535 646.7372,282.8605 648.0212,282.9135" id="Fill-47"></path>
            <path d="M622.1017,308.5059 C620.2277,307.7219 618.3747,307.3309 617.0817,306.2609 C616.3227,305.6319 615.9097,303.7179 616.2807,302.7379 C618.1207,297.8809 620.1947,293.1059 622.3567,288.3799 C623.1747,286.5899 624.3467,284.9309 625.5497,283.3599 C626.3737,282.2819 627.3127,282.1599 628.0557,283.7209 C628.2807,284.1929 629.2687,284.5109 629.9197,284.5309 C632.2307,284.6049 632.3757,285.9089 631.6737,287.5519 C629.4037,292.8579 627.0797,298.1419 624.7207,303.4079 C623.9587,305.1079 623.0207,306.7299 622.1017,308.5059" id="Fill-49"></path>
            <path d="M464.1843,229.0286 C460.2463,228.7176 456.2083,228.2266 452.1633,228.1516 C450.0983,228.1126 448.0273,229.0716 445.9443,229.1406 C438.0683,229.4036 430.1853,229.5896 422.3063,229.5766 C419.8143,229.5716 417.2823,229.0166 414.8453,228.4086 C413.2203,228.0036 412.0493,226.7856 412.6933,224.8736 C413.1633,223.4786 413.9053,222.1756 414.5673,220.7416 C415.7213,221.0606 416.7563,221.3476 417.0273,221.4226 C418.4403,220.8056 419.2203,220.2466 420.0563,220.1476 C421.4763,219.9786 422.9323,220.1236 424.3723,220.0956 C432.6513,219.9316 440.9353,219.5366 449.2093,219.6826 C453.0053,219.7496 456.7703,220.2376 460.5663,219.5606 C461.0853,219.4686 461.7463,220.1576 462.3383,220.4906 C463.2053,220.9796 464.0703,221.4726 465.1623,221.6766 C462.2473,218.6306 463.5093,215.0456 463.4023,211.7186 C463.2593,207.2596 463.0363,202.8026 462.9983,198.3426 C462.9563,193.5466 463.1253,188.7496 463.1323,183.9516 C463.1353,181.3296 462.9073,178.7056 462.9483,176.0846 C462.9763,174.3556 462.8983,172.4396 463.6053,170.9606 C464.2303,169.6526 465.8743,168.8326 467.2913,167.6046 C467.9753,168.6136 468.4673,169.3406 469.1163,170.2986 C469.5303,170.0516 470.2463,169.6236 471.2803,169.0066 C471.7083,170.9916 472.3773,172.7786 472.4223,174.5806 C472.5043,177.8426 472.1333,181.1126 472.0983,184.3806 C472.0323,190.4406 471.9923,196.5046 472.0903,202.5636 C472.1733,207.7076 472.3073,212.8606 472.7273,217.9846 C472.9623,220.8586 469.9993,220.7216 469.1853,222.4886 C468.3263,222.0546 467.4683,221.6216 466.8073,221.2886 C466.0493,223.5246 465.2413,225.9106 464.1843,229.0286" id="Fill-51"></path>
            <path d="M419.4241,121.2791 C418.5791,126.7291 420.8561,132.2721 417.7751,137.1911 C413.6071,136.5741 412.5551,135.5031 412.6271,131.4041 C412.7261,125.8251 413.0041,120.2501 413.1781,114.6721 C413.2291,113.0351 413.0651,111.3841 413.2091,109.7581 C413.4971,106.5201 416.2011,105.6401 419.1431,108.1761 C421.0551,109.8241 422.3311,112.2541 423.7341,114.4341 C425.1971,116.7071 426.4691,119.1021 427.9281,121.6211 C427.9281,117.7711 427.8051,114.2391 427.9931,110.7241 C428.0621,109.4301 428.5331,107.7221 429.4451,107.0461 C430.1751,106.5061 432.5071,106.8071 432.9701,107.5031 C433.9231,108.9371 434.8571,111.0881 434.4571,112.5861 C433.1741,117.4061 435.3971,122.0291 434.7081,126.7621 C434.4061,128.8411 434.7091,131.0131 434.3551,133.0771 C434.1441,134.3001 432.9221,136.4481 432.6091,136.3701 C430.9751,135.9611 428.9301,135.3611 428.0501,134.1101 C425.2581,130.1371 422.9221,125.8441 420.3941,121.6851 C420.3151,121.5551 420.0541,121.5351 419.4241,121.2791" id="Fill-53"></path>
            <path d="M409.6657,167.435 C410.3157,168.642 410.6807,169.319 411.0937,170.086 C411.6917,169.803 412.4247,169.457 413.0697,169.151 C413.3897,169.375 413.6757,169.48 413.6777,169.591 C413.7907,175.29 413.8147,180.991 413.9867,186.688 C414.2007,193.765 414.5567,200.838 414.8077,207.914 C414.9297,211.346 415.1827,214.801 414.8997,218.207 C414.7987,219.434 413.3677,220.602 412.4267,221.697 C410.9337,223.434 410.2887,221.38 409.2547,221.123 C407.2727,220.632 405.7007,220.161 405.3737,218.105 C405.1157,216.492 405.4367,214.792 405.4227,213.131 C405.4027,210.881 405.2387,208.63 405.2637,206.381 C405.3047,202.812 405.5427,199.244 405.5317,195.677 C405.5167,190.887 405.3237,186.097 405.2477,181.307 C405.2057,178.63 405.0567,175.933 405.3187,173.28 C405.4757,171.688 404.6147,168.887 408.1247,169.489 C408.4197,169.54 408.9047,168.48 409.6657,167.435" id="Fill-55"></path>
            <path d="M308.8369,169.351 C310.1019,169.135 311.3999,168.64 311.4349,171.132 C311.5089,176.542 311.4019,181.955 311.4969,187.364 C311.5489,190.291999 311.9709,193.213 312.0349,196.142 C312.1139,199.732 311.9429,203.328 311.9739,206.92 C312.0039,210.449 311.8469,214.02 312.3439,217.491 C312.7589,220.398 309.7009,220.51 309.1579,222.468 C308.2899,222.096 307.4529,221.61 306.5499,221.373 C301.2479,219.98 303.1339,215.651 302.9429,212.311 C302.7179,208.39 302.9099,204.446 302.9099,200.512 C302.9099,198.023 302.9369,195.532 302.8669,193.045 C302.7429,188.686 301.9229,184.227 302.6039,180.005 C303.0839,177.031 302.0749,174.172 302.9099,171.35 C303.1029,170.698 303.5809,170.058 304.0909,169.59 C304.7029,169.028 305.4879,168.293 306.1979,168.291999 C307.0769,168.291 307.9569,168.967 308.8369,169.351" id="Fill-57"></path>
            <path d="M392.4795,169.8318 C393.8355,168.7918 394.8875,169.0338 394.8295,171.5868 C394.7115,176.8048 394.5575,182.0218 394.5265,187.2398 C394.5125,189.6538 394.8005,192.0678 394.8695,194.4838 C395.0705,201.6008 395.2015,208.7198 395.4255,215.8368 C395.4965,218.0848 395.6165,219.8128 393.1915,221.5248 C391.5605,222.6758 391.2805,222.0558 389.9725,221.6888 C384.8575,220.2528 386.4025,216.2508 386.2635,212.9138 C386.0545,207.9028 385.8545,202.8878 385.849437,197.8738 C385.8445,193.0938 386.1375,188.3148 386.2195,183.5338 C386.2885,179.4848 386.3835,175.4268 386.1995,171.3848 C386.0655,168.4538 389.2815,169.7658 389.9755,168.0388 C390.7485,168.5928 391.5225,169.1468 392.4795,169.8318" id="Fill-59"></path>
            <path d="M470.8118,228.8126 C471.2208,228.6246 471.9818,228.2736 473.5088,227.5706 C473.5088,232.4636 473.4598,236.7626 473.5218,241.0606 C473.5848,245.3886 473.7898,249.7146 473.8698,254.0426 C473.9248,257.0226 473.8588,260.0046 473.8718,262.9846 C473.8918,267.3516 473.9108,271.7186 473.9788,276.0846 C474.0128,278.3116 472.0298,281.4016 470.4918,281.373789 C468.0058,281.3286 465.2748,278.3076 465.2428,275.9616 C465.1638,270.2686 464.8328,264.5796 464.7368,258.8876 C464.6408,253.2576 464.7068,247.6246 464.7048,241.9926 C464.7038,238.3856 464.6898,234.7786 464.7168,231.1716 C464.7278,229.6836 467.5248,226.6076 468.7488,226.9396 C469.5218,227.1476 470.0878,228.1206 470.8118,228.8126" id="Fill-61"></path>
            <path d="M391.8123,228.7814 C392.2723,228.5864 393.0533,228.2564 394.2333,227.7564 C394.2333,234.1514 394.1613,240.0734 394.2573,245.9934 C394.3283,250.3234 394.6833,254.6474 394.7963,258.9774 C394.9543,264.9954 395.2723,271.0324 394.9153,277.0244 C394.8253,278.5404 392.6123,280.8414 391.0573,281.1434 C388.7103,281.5994 386.1453,278.1564 386.1223,276.0484 C386.0743,271.7304 385.7783,267.4154 385.6393,263.0974 C385.4373,256.8264 385.1683,250.5534 385.1463,244.2794 C385.1303,239.6374 385.1873,234.9554 385.8153,230.3734 C385.9963,229.0544 388.2163,227.9414 389.6533,226.9564 C389.8413,226.8274 390.9403,228.0284 391.8123,228.7814" id="Fill-63"></path>
            <path d="M309.7261,228.7247 C311.0241,227.6457 312.1011,227.8327 312.0591,230.2597 C311.9671,235.5807 311.7451,240.9007 311.7141,246.2217 C311.7011,248.6327 312.0491,251.0447 312.1771,253.4587 C312.3411,256.5477 312.5121,259.6387 312.5671,262.7297 C312.6481,267.3257 312.2271,271.9737 312.7971,276.5017 C313.1701,279.4587 310.0781,279.3247 309.7651,281.3157 C308.8681,280.8827 307.9931,280.1327 307.0711,280.0707 C302.5621,279.7637 303.6011,276.4397 303.4971,273.7497 C303.2781,268.0527 303.0141,262.3537 302.9451,256.6537 C302.9131,254.0227 303.4351,251.3877 303.4541,248.7517 C303.4781,245.5077 303.1441,242.2617 303.1421,239.0167 C303.1401,235.9447 303.0211,232.7967 303.6621,229.8357 C303.9221,228.6367 305.9881,227.7067 307.3981,226.9727 C307.7211,226.8037 308.7281,227.9467 309.7261,228.7247" id="Fill-65"></path>
            <path d="M326.6166,167.9665 C326.9886,168.7135 327.3316,169.4035 327.6796,170.1035 C328.3656,169.7945 329.1176,169.4545 330.1856,168.9735 C330.4326,170.4195 330.7936,171.6225 330.8166,172.8305 C330.9146,178.0535 330.9076,183.2775 330.9526,188.5015 C330.9806,191.7245 331.0066,194.9475 331.0806,198.1695 C331.2276,204.5615 331.2626,210.9615 331.6386,217.3405 C331.8096,220.2315 329.6896,221.2635 328.0346,222.3885 C326.5586,223.3915 322.3666,219.2405 322.3506,217.2895 C322.3186,213.4405 321.9496,209.5945 321.9086,205.7455 C321.8616,201.3925 322.0036,197.0365 322.0976,192.6825 C322.2056,187.7065 322.3516,182.7305 322.4786,177.7545 C322.4836,177.5515 322.4976,177.3355 322.4396,177.1465 C321.1886,173.0895 321.4466,169.6585 326.6166,167.9665" id="Fill-67"></path>
            <path d="M328.647,282.1349 C326.622,281.1609 324.936,280.4919 323.418,279.5519 C322.782,279.1589 322.15,278.2079 322.117,277.4839 C321.936,273.4719 321.868,269.4509 321.9,265.4339 C321.936,260.9339 322.225,256.4359 322.214,251.9369 C322.2,245.9939 322.02,240.0499 321.873,234.1079 C321.784,230.4859 322.128,229.9339 325.843,227.8199 C327.4,228.3779 328.592,228.8059 330.57,229.5139 C330.713,232.0569 330.915,235.3969 331.086,238.7379 C331.279,242.5049 331.459,246.4089 331.271,250.0239 C331.027,254.6999 331.371,259.3629 331.157,264.0239 C330.96,268.3219 331.762,272.6699 331.494,276.9569 C331.382,278.7409 329.639,280.4239 328.647,282.1349" id="Fill-69"></path>
            <path d="M332.4691,160.4749 C334.4591,160.0369 336.1801,159.6589 337.9021,159.2799 C337.9151,159.3679 337.9271,159.4549 337.9401,159.5429 C339.4371,159.3749 340.9341,159.0799 342.4331,159.0649 C345.2551,159.0359 348.0801,159.2549 350.9011,159.2149 C355.1901,159.1539 359.4751,158.8879 363.7641,158.8429 C367.7481,158.8019 371.8241,159.4759 375.6911,158.8289 C378.9481,158.2839 381.0121,160.8769 383.9051,160.7189 C384.1961,160.7029 384.6061,161.1379 384.8041,161.4609 C385.4071,162.4439 382.4111,167.7069 381.2221,167.6879 C377.6921,167.6319 374.1621,167.3849 370.6361,167.4339 C368.5481,167.4629 366.4691,168.0989 364.3811,168.1319 C359.7691,168.2039 355.1541,168.0019 350.5411,168.0409 C347.8071,168.0639 345.0681,168.5409 342.3451,168.4369 C339.3991,168.3239 336.4181,167.9969 333.5491,167.3379 C331.3481,166.8319 329.3121,165.7319 331.6231,162.8929 C332.2041,162.1799 332.2791,161.0549 332.4691,160.4749" id="Fill-71"></path>
            <path d="M384.9913,284.0745 C384.2763,285.7645 383.7583,287.8125 382.5993,289.3915 C382.0063,290.1995 380.2613,290.4835 379.0503,290.4535 C376.1333,290.3835 373.2273,289.8185 370.3123,289.7805 C368.1403,289.7525 365.9643,290.4205 363.7843,290.4605 C356.9033,290.5845 350.0183,290.5155 343.1373,290.6165 C340.9423,290.6485 338.6833,291.3955 336.5803,291.0475 C334.7033,290.7365 332.8483,289.5605 331.3163,288.3455 C330.8603,287.9835 331.4393,286.1795 331.7113,285.0775 C331.9453,284.1325 332.4163,283.2455 332.5053,283.0245 C334.4433,282.4865 335.7863,281.9165 337.1743,281.7735 C339.4833,281.5345 341.8213,281.4935 344.1453,281.5165 C345.7543,281.5325 347.3633,281.9535 348.9673,281.9195 C352.7453,281.8395 356.5183,281.5475 360.2963,281.4295 C366.3363,281.2395 372.3793,281.1145 378.4223,280.9805 C378.9893,280.9675 379.6483,280.9145 380.1123,281.1635 C381.6733,282.0025 383.1643,282.9695 384.9913,284.0745" id="Fill-73"></path>
            <path d="M332.7388,220.5029 C334.3998,221.2909 335.4968,221.3999 337.1758,220.3739 C338.7508,219.4119 341.3498,220.1319 343.4988,220.1009 C348.0878,220.0369 352.6778,219.9079 357.2668,219.9139 C362.2388,219.9199 367.2108,220.0619 372.1828,220.1169 C374.0218,220.1369 375.8648,220.0009 377.6998,220.0809 C379.0218,220.1389 380.3338,220.4379 381.6068,221.2139 C382.6648,221.4989 383.7228,221.7839 384.7808,222.0689 C384.4798,223.0369 383.9998,223.9879 383.9088,224.9749 C383.4628,229.7789 379.4098,228.5639 376.6858,229.0899 C374.9508,229.4249 372.9818,228.4899 371.1068,228.1879 C370.5288,228.0949 369.9078,228.1509 369.3228,228.2429 C367.3338,228.5579 365.3608,229.1459 363.3668,229.2159 C358.8798,229.3719 354.3818,229.3539 349.8918,229.2679 C346.1408,229.1949 342.3148,228.3979 338.6768,228.9479 C336.6428,229.2559 335.0878,229.0969 333.3378,228.4349 C330.7918,227.4709 330.3858,226.3419 331.6128,223.9199 C332.0978,222.9619 332.3028,221.8619 332.7388,220.5029" id="Fill-75"></path>
            <path d="M295.7657,125.219 C295.8457,127.001 295.9167,128.565 296.0027,130.488 C298.6477,130.728 301.3087,131.123 303.9777,131.178 C309.5527,131.292 310.1777,132.178 308.1297,136.72 C302.6967,136.72 297.4827,136.901 292.3037,136.568 C291.2687,136.501 289.5087,134.459 289.529514,133.355 C289.6767,125.811 290.1437,118.27 290.6537,110.737 C290.8257,108.197 292.8167,106.967 295.0537,106.869 C298.0567,106.737 301.0847,107.106 304.0967,107.323 C304.8737,107.379 305.6267,107.777 306.4037,107.831 C308.6997,107.991 308.9857,109.944 308.6967,111.277 C308.5007,112.177 306.7367,113.225 305.5917,113.335 C302.5857,113.622 299.5337,113.432 296.4707,113.432 C296.3737,118.365 296.8437,118.925 301.3047,118.646 C302.4997,118.571 303.6907,118.363 304.8847,118.354 C307.2127,118.337 309.4397,120.093 308.8967,121.763 C308.3287,123.509 307.1837,124.774 304.7447,124.619 C301.8017,124.433 298.8127,124.982 295.7657,125.219" id="Fill-77"></path>
            <path d="M397.5155,114.3842 C397.6815,115.4432 397.8735,116.1062 397.8735,116.7692 C397.8725,118.8642 398.0775,120.0082 400.8735,119.1362 C402.9805,118.4782 405.4655,118.6352 406.6265,121.6862 C407.5175,124.0292 406.4165,124.7592 404.6795,125.0222 C402.5675,125.3422 400.3965,125.2702 398.0635,125.3762 L398.0635,130.5062 C400.4605,130.2442 402.8955,130.2422 405.1805,129.6552 C407.6595,129.0182 409.2175,130.1152 410.3325,131.8772 C410.7155,132.4832 410.1235,133.8552 409.7085,134.7522 C409.5145,135.1722 408.6825,135.5232 408.1405,135.521209 C403.5545,135.5002 398.9485,135.5952 394.3985,135.1432 C393.4345,135.0482 391.9735,132.8772 391.9425,131.6322 C391.7655,124.5422 391.9135,117.4432 392.0345,110.3492 C392.0795,107.7292 393.4065,106.9662 395.9165,107.4402 C397.9445,107.8222 400.0695,107.6622 402.1215,107.9512 C403.7755,108.1852 405.5255,108.4722 406.9515,109.2512 C407.6375,109.6252 408.1265,111.3292 407.8665,112.1742 C407.6415,112.9062 406.2595,113.3272 405.3335,113.7712 C405.0535,113.9052 404.5815,113.5632 404.2135,113.6022 C402.0565,113.8272 399.9035,114.0992 397.5155,114.3842" id="Fill-79"></path>
            <path d="M360.1181,125.8381 L360.1181,129.9581 C362.7481,129.6241 365.3471,129.2931 367.9461,128.9621 C370.1991,128.6751 372.1461,130.0451 372.0911,132.1831 C372.0301,134.5091 370.4881,135.1481 368.2871,135.1351 C366.1431,135.1231 364.0011,135.5921 361.8511,135.7631 C355.0421,136.3051 353.0151,134.4651 353.2271,128.0181 C353.4081,122.5561 353.6021,117.0931 353.7471,111.6301 C353.8321,108.4311 355.0661,107.4561 358.2271,107.8561 C360.5921,108.1541 363.0001,108.2961 365.3801,108.2291 C367.6031,108.1671 368.2621,109.8261 368.9021,111.2701 C369.0291,111.5551 367.3311,112.9971 366.2841,113.3701 C364.8781,113.8711 363.2851,113.8401 361.7751,114.0571 C358.4561,114.5331 360.4411,117.0001 359.7761,118.8261 C362.0121,119.0951 364.0581,119.0711 365.9141,119.6521 C367.2911,120.0841 368.4221,121.3031 369.6621,122.1711 C368.5851,123.1421 367.6571,124.5381 366.3941,124.9841 C364.6071,125.6151 362.5721,125.5451 360.1181,125.8381" id="Fill-81"></path>
            <path d="M320.8488,117.9879 C322.4298,115.0949 323.5618,112.2529 325.4078,109.9939 C326.2478,108.9659 328.5018,109.0929 330.1138,108.6949 C330.2388,110.0789 330.9068,111.7239 330.3908,112.7989 C328.6798,116.3589 326.5008,119.6909 324.6128,123.1719 C324.3238,123.7029 324.3898,124.6869 324.6968,125.2349 C326.1328,127.7979 327.6428,130.3269 329.2598,132.7809 C330.5998,134.8139 329.1538,136.2329 327.8998,136.8729 C327.0668,137.2969 325.1748,136.4909 324.2468,135.6779 C322.9718,134.5589 322.2078,132.8739 321.1228,131.5129 C320.7348,131.0259 320.0498,130.7779 319.6418,130.5129 C318.2668,132.3879 317.3378,134.3879 315.7808,135.5289 C314.6908,136.3269 312.2538,136.6239 311.2988,135.9309 C310.0508,135.0259 309.5108,133.2219 311.2888,131.3559 C313.4578,129.0799 314.9878,126.1959 316.5738,123.8949 C315.3778,118.6429 309.6378,115.1099 311.7418,108.8209 C317.7368,109.0369 318.0688,114.3939 320.8488,117.9879" id="Fill-83"></path>
            <path d="M472.5143,112.2707 L472.5143,129.8157 C475.3843,129.6497 477.8873,129.0797 480.1953,129.5227 C481.7093,129.8127 483.9753,131.4847 484.0723,132.6857 C484.2393,134.7567 482.1883,135.5367 479.9743,135.5497 C476.9593,135.5657 473.9453,135.9137 470.9323,136.1387 C468.3513,136.3307 466.6433,134.9977 466.5573,132.5777 C466.3253,126.0987 466.1363,119.6187 465.9373,113.1387 C465.9183,112.5277 465.8733,111.9047 465.9623,111.3057 C466.6463,106.7077 468.1723,105.8147 472.8323,106.4327 C475.8993,106.8387 479.0493,106.6057 482.1613,106.6987 C484.5183,106.7687 486.2183,108.0237 486.0483,110.3487 C485.8933,112.4817 483.8773,112.8617 481.9683,112.8227 C480.3403,112.7897 478.7073,112.8447 477.0833,112.7507 C475.5073,112.6587 473.9393,112.4257 472.5143,112.2707" id="Fill-85"></path>
            <path d="M352.2197,114.7718 C350.2457,114.4598 348.4567,114.2598 346.7057,113.8838 C343.6907,113.2338 339.8457,114.7308 337.9427,117.4058 C335.7337,120.5108 335.1977,124.3468 337.6477,126.7568 C339.1877,128.2728 342.0527,128.4818 344.3617,129.1448 C344.8367,129.2808 345.5067,128.6168 346.0427,128.6838 C347.5967,128.8778 349.1277,129.2558 350.6677,129.5618 C349.8387,131.2508 349.4057,133.9508 348.1127,134.4578 C342.0087,136.8518 334.5827,135.5798 330.9407,127.8958 C327.7497,121.1638 331.0527,116.4678 334.7667,111.9118 C338.0317,107.9078 342.9377,106.4958 347.8607,107.4608 C351.9497,108.2628 353.5527,109.4998 352.2197,114.7718" id="Fill-87"></path>
            <path d="M450.9215,112.088 C450.9215,115.767 450.8435,119.096 450.9455,122.419 C451.0295,125.151 451.5905,127.894 451.4155,130.598 C451.3345,131.858 450.2765,133.61 449.1885,134.111 C447.8365,134.733 446.3065,134.308 445.5455,132.17 C443.9115,127.578 445.4325,123.011 445.1155,118.452 C444.9935,116.697 445.0955,114.926 445.0955,113.006 C441.9305,112.385 438.2145,114.24 435.9895,110.606 C436.9465,107.524 438.9465,106.498 442.2915,106.592 C447.5485,106.739 452.8235,106.241 458.0915,106.025 C458.6515,106.002 459.2155,106.066 459.7755,106.037 C462.1085,105.917 463.4635,107.588 463.2055,109.313 C463.0435,110.398 460.9025,111.724 459.4825,111.967 C456.9635,112.398 454.3175,112.088 450.9215,112.088" id="Fill-89"></path>
            <path d="M378.7668,129.654 C381.7948,130.003 384.4518,130.054 386.9418,130.726 C387.9028,130.986 389.0018,132.626 389.0618,133.693 C389.1048,134.451 387.5888,135.878 386.6388,136 C384.0878,136.328 381.4258,136.412 378.8838,136.054 C374.2088,135.396 372.7658,133.788 372.7608,129.506 C372.7538,123.336 372.5228,117.151 372.9138,111.005 C373.0218,109.304 374.8998,107.639 376.1978,106.159 C376.4428,105.88 378.0038,106.325 378.5528,106.855 C379.1528,107.435 379.6148,108.519 379.5668,109.351 C379.2388,115.131 378.3928,120.89 379.3448,126.698 C379.4908,127.592 378.9918,128.591 378.7668,129.654" id="Fill-91"></path>
            <path d="M468.0383,52.6295 C466.6383,45.4015 466.9563,38.2435 467.2013,31.1055 C472.0823,30.0865 478.0553,32.8045 480.0493,36.8845 C482.1533,41.1895 480.0173,47.0085 475.5993,49.0555 C473.2123,50.1615 470.8423,51.3025 468.0383,52.6295" id="Fill-93"></path>
            <path d="M622.3544,32.5178 C630.1954,32.3708 631.7464,38.2068 629.6684,44.3508 C628.7094,47.1868 627.2294,50.2568 623.9234,50.7998 C618.0994,51.7548 614.3394,47.9658 615.1404,41.9088 C615.3804,40.0918 616.2914,38.3738 616.6894,36.5648 C617.3754,33.4428 619.3184,32.2598 622.3544,32.5178" id="Fill-95"></path>
            <path d="M528.8827,51.7616 C526.1267,49.4486 523.4597,47.5136 521.2027,45.1796 C520.1677,44.1086 519.6167,42.2996 519.4127,40.7506 C518.9047,36.8926 525.4427,31.5866 529.3617,32.5176 C530.0177,32.6736 530.7507,32.8296 531.2617,33.2266 C534.5757,35.7996 536.2197,44.9536 533.7417,48.2126 C532.7197,49.5556 530.9257,50.3126 528.8827,51.7616" id="Fill-97"></path>
        </g>
    </g>
</svg>